<svg width="2080" height="1560" viewBox="0 0 2080 1560" fill="none" xmlns="http://www.w3.org/2000/svg">
<rect width="2080" height="1560" fill="white"/>
<path d="M545.804 448.848H356.828V1491.34H545.804V448.848Z" fill="#F5F5F5"/>
<path d="M545.804 448.848H451.3V1488.77H545.804V448.848Z" fill="#EBEBEB"/>
<path d="M445.153 371.213H378.408V448.847H445.153V371.213Z" fill="#F5F5F5"/>
<path d="M445.153 371.213H429.235V448.847H445.153V371.213Z" fill="#EBEBEB"/>
<path d="M341.072 448.847V444.318H551.336V448.847" fill="#E0E0E0"/>
<path d="M410.114 482.729H394.131V527.293H410.114V482.729Z" fill="#FAFAFA"/>
<path d="M451.3 544.77C451.3 545.24 430.173 545.624 404.064 545.624C377.955 545.624 356.828 545.24 356.828 544.77C356.828 544.3 377.987 543.915 404.064 543.915C430.141 543.915 451.3 544.3 451.3 544.77Z" fill="#E0E0E0"/>
<path d="M505.427 482.729H489.444V527.293H505.427V482.729Z" fill="#E0E0E0"/>
<path d="M546.645 544.77C546.645 545.24 525.485 545.624 499.376 545.624C473.267 545.624 452.141 545.24 452.141 544.77C452.141 544.3 473.3 543.915 499.376 543.915C525.453 543.915 546.645 544.3 546.645 544.77Z" fill="#E0E0E0"/>
<path d="M505.427 571.173H489.444V615.737H505.427V571.173Z" fill="#E0E0E0"/>
<path d="M546.645 633.213C546.645 633.683 525.485 634.067 499.376 634.067C473.267 634.067 452.141 633.683 452.141 633.213C452.141 632.743 473.3 632.358 499.376 632.358C525.453 632.358 546.645 632.743 546.645 633.213Z" fill="#E0E0E0"/>
<path d="M505.427 662.268H489.444V706.831H505.427V662.268Z" fill="#E0E0E0"/>
<path d="M546.645 724.306C546.645 724.776 525.485 725.16 499.376 725.16C473.267 725.16 452.141 724.776 452.141 724.306C452.141 723.836 473.3 723.451 499.376 723.451C525.453 723.451 546.645 723.836 546.645 724.306Z" fill="#E0E0E0"/>
<path d="M505.427 753.402H489.444V797.966H505.427V753.402Z" fill="#E0E0E0"/>
<path d="M546.645 815.4C546.645 815.87 525.485 816.254 499.376 816.254C473.267 816.254 452.141 815.87 452.141 815.4C452.141 814.93 473.3 814.545 499.376 814.545C525.453 814.545 546.645 814.93 546.645 815.4Z" fill="#E0E0E0"/>
<path d="M505.427 841.891H489.444V886.454H505.427V841.891Z" fill="#E0E0E0"/>
<path d="M546.645 903.929C546.645 904.399 525.485 904.783 499.376 904.783C473.267 904.783 452.141 904.399 452.141 903.929C452.141 903.459 473.3 903.074 499.376 903.074C525.453 903.074 546.645 903.459 546.645 903.929Z" fill="#E0E0E0"/>
<path d="M505.427 930.761H489.444V975.325H505.427V930.761Z" fill="#E0E0E0"/>
<path d="M505.427 1020.79H489.444V1065.35H505.427V1020.79Z" fill="#E0E0E0"/>
<path d="M546.645 992.758C546.645 993.228 525.485 993.613 499.376 993.613C473.267 993.613 452.141 993.228 452.141 992.758C452.141 992.288 473.3 991.946 499.376 991.946C525.453 991.946 546.645 992.288 546.645 992.758Z" fill="#E0E0E0"/>
<path d="M410.114 572.497H394.131V617.061H410.114V572.497Z" fill="#FAFAFA"/>
<path d="M451.3 634.537C451.3 635.007 430.173 635.392 404.064 635.392C377.955 635.392 356.828 635.007 356.828 634.537C356.828 634.067 377.987 633.683 404.064 633.683C430.141 633.683 451.3 634.067 451.3 634.537Z" fill="#E0E0E0"/>
<path d="M410.114 662.31H394.131V706.873H410.114V662.31Z" fill="#FAFAFA"/>
<path d="M451.3 724.349C451.3 724.819 430.173 725.203 404.064 725.203C377.955 725.203 356.828 724.819 356.828 724.349C356.828 723.879 377.987 723.494 404.064 723.494C430.141 723.494 451.3 723.879 451.3 724.349Z" fill="#E0E0E0"/>
<path d="M410.114 752.078H394.131V796.642H410.114V752.078Z" fill="#FAFAFA"/>
<path d="M451.3 814.117C451.3 814.587 430.173 814.972 404.064 814.972C377.955 814.972 356.828 814.587 356.828 814.117C356.828 813.647 377.987 813.263 404.064 813.263C430.141 813.263 451.3 813.647 451.3 814.117Z" fill="#E0E0E0"/>
<path d="M410.114 841.891H394.131V886.454H410.114V841.891Z" fill="#FAFAFA"/>
<path d="M451.3 903.929C451.3 904.399 430.173 904.783 404.064 904.783C377.955 904.783 356.828 904.399 356.828 903.929C356.828 903.459 377.987 903.074 404.064 903.074C430.141 903.074 451.3 903.459 451.3 903.929Z" fill="#E0E0E0"/>
<path d="M410.114 931.658H394.131V976.222H410.114V931.658Z" fill="#FAFAFA"/>
<path d="M451.3 993.698C451.3 994.168 430.173 994.553 404.064 994.553C377.955 994.553 356.828 994.168 356.828 993.698C356.828 993.228 377.987 992.844 404.064 992.844C430.141 992.844 451.3 993.228 451.3 993.698Z" fill="#E0E0E0"/>
<path d="M410.114 1021.47H394.131V1066.03H410.114V1021.47Z" fill="#FAFAFA"/>
<path d="M1712.56 467.775H1568.62V1070.26H1712.56V467.775Z" fill="#F5F5F5"/>
<path d="M1712.59 467.775H1640.61V1068.64H1712.59V467.775Z" fill="#EBEBEB"/>
<path d="M1635.88 408.599H1585.06V467.732H1635.88V408.599Z" fill="#F5F5F5"/>
<path d="M1635.88 408.599H1623.78V467.732H1635.88V408.599Z" fill="#EBEBEB"/>
<path d="M1556.62 467.775V464.314H1716.8V467.775" fill="#E0E0E0"/>
<path d="M1609.22 493.54H1597.03V527.465H1609.22V493.54Z" fill="#FAFAFA"/>
<path d="M1640.61 540.794C1640.61 541.178 1624.43 541.434 1604.63 541.434C1584.83 541.434 1568.62 541.178 1568.62 540.794C1568.62 540.41 1584.8 540.153 1604.63 540.153C1624.46 540.153 1640.61 540.452 1640.61 540.794Z" fill="#E0E0E0"/>
<path d="M1681.86 493.54H1669.66V527.465H1681.86V493.54Z" fill="#E0E0E0"/>
<path d="M1713.21 540.794C1713.21 541.178 1697.03 541.434 1677.23 541.434C1657.43 541.434 1641.22 541.178 1641.22 540.794C1641.22 540.41 1657.4 540.153 1677.23 540.153C1697.06 540.153 1713.21 540.452 1713.21 540.794Z" fill="#E0E0E0"/>
<path d="M1681.86 560.919H1669.66V594.844H1681.86V560.919Z" fill="#E0E0E0"/>
<path d="M1713.21 608.175C1713.21 608.516 1697.03 608.815 1677.23 608.815C1657.43 608.815 1641.22 608.516 1641.22 608.175C1641.22 607.833 1657.4 607.534 1677.23 607.534C1697.06 607.534 1713.21 607.833 1713.21 608.175Z" fill="#E0E0E0"/>
<path d="M1681.86 630.307H1669.66V664.232H1681.86V630.307Z" fill="#E0E0E0"/>
<path d="M1713.21 677.562C1713.21 677.947 1697.03 678.203 1677.23 678.203C1657.43 678.203 1641.22 677.947 1641.22 677.562C1641.22 677.178 1657.4 676.922 1677.23 676.922C1697.06 676.922 1713.21 677.221 1713.21 677.562Z" fill="#E0E0E0"/>
<path d="M1681.86 699.738H1669.66V733.663H1681.86V699.738Z" fill="#E0E0E0"/>
<path d="M1713.21 746.993C1713.21 747.334 1697.03 747.633 1677.23 747.633C1657.43 747.633 1641.22 747.334 1641.22 746.993C1641.22 746.651 1657.4 746.31 1677.23 746.31C1697.06 746.31 1713.21 746.608 1713.21 746.993Z" fill="#E0E0E0"/>
<path d="M1681.86 767.16H1669.66V801.085H1681.86V767.16Z" fill="#E0E0E0"/>
<path d="M1713.21 814.374C1713.21 814.758 1697.03 815.057 1677.23 815.057C1657.43 815.057 1641.22 814.758 1641.22 814.374C1641.22 813.99 1657.4 813.733 1677.23 813.733C1697.06 813.733 1713.21 814.032 1713.21 814.374Z" fill="#E0E0E0"/>
<path d="M1681.86 834.84H1669.66V868.765H1681.86V834.84Z" fill="#E0E0E0"/>
<path d="M1681.86 903.415H1669.66V937.34H1681.86V903.415Z" fill="#E0E0E0"/>
<path d="M1713.21 882.095C1713.21 882.437 1697.03 882.736 1677.23 882.736C1657.43 882.736 1641.22 882.437 1641.22 882.095C1641.22 881.754 1657.4 881.412 1677.23 881.412C1697.06 881.412 1713.21 881.711 1713.21 882.095Z" fill="#E0E0E0"/>
<path d="M1609.22 561.944H1597.03V595.869H1609.22V561.944Z" fill="#FAFAFA"/>
<path d="M1640.61 609.199C1640.61 609.541 1624.43 609.839 1604.63 609.839C1584.83 609.839 1568.62 609.541 1568.62 609.199C1568.62 608.857 1584.8 608.559 1604.63 608.559C1624.46 608.559 1640.61 608.857 1640.61 609.199Z" fill="#E0E0E0"/>
<path d="M1609.22 630.35H1597.03V664.275H1609.22V630.35Z" fill="#FAFAFA"/>
<path d="M1640.61 677.605C1640.61 677.947 1624.43 678.246 1604.63 678.246C1584.83 678.246 1568.62 677.947 1568.62 677.605C1568.62 677.264 1584.8 676.965 1604.63 676.965C1624.46 676.965 1640.61 677.264 1640.61 677.605Z" fill="#E0E0E0"/>
<path d="M1609.22 698.755H1597.03V732.68H1609.22V698.755Z" fill="#FAFAFA"/>
<path d="M1640.61 746.012C1640.61 746.353 1624.43 746.652 1604.63 746.652C1584.83 746.652 1568.62 746.353 1568.62 746.012C1568.62 745.67 1584.8 745.371 1604.63 745.371C1624.46 745.371 1640.61 745.627 1640.61 746.012Z" fill="#E0E0E0"/>
<path d="M1609.22 767.16H1597.03V801.085H1609.22V767.16Z" fill="#FAFAFA"/>
<path d="M1640.61 814.374C1640.61 814.758 1624.43 815.057 1604.63 815.057C1584.83 815.057 1568.62 814.758 1568.62 814.374C1568.62 813.99 1584.8 813.733 1604.63 813.733C1624.46 813.733 1640.61 814.032 1640.61 814.374Z" fill="#E0E0E0"/>
<path d="M1609.22 835.523H1597.03V869.448H1609.22V835.523Z" fill="#FAFAFA"/>
<path d="M1640.61 882.779C1640.61 883.163 1624.43 883.42 1604.63 883.42C1584.83 883.42 1568.62 883.163 1568.62 882.779C1568.62 882.395 1584.8 882.139 1604.63 882.139C1624.46 882.139 1640.61 882.438 1640.61 882.779Z" fill="#E0E0E0"/>
<path d="M1609.22 903.929H1597.03V937.854H1609.22V903.929Z" fill="#FAFAFA"/>
<path d="M1878.86 756.778H1703.15V1492.15H1878.86V756.778Z" fill="#F5F5F5"/>
<path d="M1878.86 756.778H1791.02V1490.1H1878.86V756.778Z" fill="#EBEBEB"/>
<path d="M1785.26 684.57H1723.2V756.778H1785.26V684.57Z" fill="#F5F5F5"/>
<path d="M1785.26 684.57H1770.47V756.778H1785.26V684.57Z" fill="#EBEBEB"/>
<path d="M1688.52 756.779V752.549H1884V756.779" fill="#E0E0E0"/>
<path d="M1752.71 788.269H1737.83V829.671H1752.71V788.269Z" fill="#FAFAFA"/>
<path d="M1791.02 846.077C1791.02 846.505 1771.35 846.846 1747.08 846.846C1722.82 846.846 1703.15 846.505 1703.15 846.077C1703.15 845.65 1722.82 845.266 1747.08 845.266C1771.35 845.266 1791.02 845.479 1791.02 846.077Z" fill="#E0E0E0"/>
<path d="M1841.33 788.269H1826.44V829.671H1841.33V788.269Z" fill="#E0E0E0"/>
<path d="M1879.63 846.077C1879.63 846.505 1859.96 846.846 1835.7 846.846C1811.43 846.846 1791.7 846.377 1791.7 846.077C1791.7 845.778 1811.37 845.266 1835.63 845.266C1859.9 845.266 1879.63 845.479 1879.63 846.077Z" fill="#E0E0E0"/>
<path d="M1841.33 870.474H1826.44V911.876H1841.33V870.474Z" fill="#E0E0E0"/>
<path d="M1879.63 928.156C1879.63 928.583 1859.96 928.925 1835.7 928.925C1811.43 928.925 1791.76 928.583 1791.76 928.156C1791.76 927.728 1811.43 927.344 1835.7 927.344C1859.96 927.344 1879.63 927.728 1879.63 928.156Z" fill="#E0E0E0"/>
<path d="M1841.33 955.2H1826.44V996.602H1841.33V955.2Z" fill="#E0E0E0"/>
<path d="M1879.63 1012.71C1879.63 1013.18 1859.96 1013.52 1835.7 1013.52C1811.43 1013.52 1791.7 1013.31 1791.7 1012.71C1791.7 1012.11 1811.37 1011.94 1835.63 1011.94C1859.9 1011.94 1879.63 1012.41 1879.63 1012.71Z" fill="#E0E0E0"/>
<path d="M1841.33 1039.88H1826.44V1081.29H1841.33V1039.88Z" fill="#E0E0E0"/>
<path d="M1879.63 1097.57C1879.63 1097.99 1859.96 1098.34 1835.7 1098.34C1811.43 1098.34 1791.7 1098.16 1791.7 1097.57C1791.7 1096.97 1811.37 1096.75 1835.63 1096.75C1859.9 1096.75 1879.63 1097.14 1879.63 1097.57Z" fill="#E0E0E0"/>
<path d="M1841.33 1122.18H1826.44V1163.58H1841.33V1122.18Z" fill="#E0E0E0"/>
<path d="M1879.63 1179.86C1879.63 1180.29 1859.96 1180.63 1835.7 1180.63C1811.43 1180.63 1791.76 1180.29 1791.76 1179.86C1791.76 1179.43 1811.43 1179.05 1835.7 1179.05C1859.96 1179.05 1879.63 1179.35 1879.63 1179.86Z" fill="#E0E0E0"/>
<path d="M1841.33 1204.77H1826.44V1246.17H1841.33V1204.77Z" fill="#E0E0E0"/>
<path d="M1841.33 1288.47H1826.44V1329.87H1841.33V1288.47Z" fill="#E0E0E0"/>
<path d="M1879.63 1262.45C1879.63 1262.88 1859.96 1263.26 1835.7 1263.26C1811.43 1263.26 1791.76 1262.88 1791.76 1262.45C1791.76 1262.02 1811.43 1261.68 1835.7 1261.68C1859.96 1261.68 1879.63 1262.02 1879.63 1262.45Z" fill="#E0E0E0"/>
<path d="M1752.71 871.756H1737.83V913.158H1752.71V871.756Z" fill="#FAFAFA"/>
<path d="M1791.02 929.393C1791.02 929.863 1771.35 930.205 1747.08 930.205C1722.82 930.205 1703.15 929.863 1703.15 929.393C1703.15 928.923 1722.82 928.624 1747.08 928.624C1771.35 928.624 1791.02 928.966 1791.02 929.393Z" fill="#E0E0E0"/>
<path d="M1752.71 955.2H1737.83V996.602H1752.71V955.2Z" fill="#FAFAFA"/>
<path d="M1791.02 1012.71C1791.02 1013.14 1771.35 1013.52 1747.08 1013.52C1722.82 1013.52 1703.15 1013.14 1703.15 1012.71C1703.15 1012.28 1722.82 1011.94 1747.08 1011.94C1771.35 1011.94 1791.02 1012.45 1791.02 1012.71Z" fill="#E0E0E0"/>
<path d="M1752.71 1038.69H1737.83V1080.09H1752.71V1038.69Z" fill="#FAFAFA"/>
<path d="M1791.02 1096.37C1791.02 1096.8 1771.35 1097.14 1747.08 1097.14C1722.82 1097.14 1703.15 1096.8 1703.15 1096.37C1703.15 1095.94 1722.82 1095.56 1747.08 1095.56C1771.35 1095.56 1791.02 1095.94 1791.02 1096.37Z" fill="#E0E0E0"/>
<path d="M1752.71 1122.18H1737.83V1163.58H1752.71V1122.18Z" fill="#FAFAFA"/>
<path d="M1791.02 1179.86C1791.02 1180.29 1771.35 1180.63 1747.08 1180.63C1722.82 1180.63 1703.15 1180.29 1703.15 1179.86C1703.15 1179.43 1722.82 1179.05 1747.08 1179.05C1771.35 1179.05 1791.02 1179.35 1791.02 1179.86Z" fill="#E0E0E0"/>
<path d="M1752.71 1205.67H1737.83V1247.07H1752.71V1205.67Z" fill="#FAFAFA"/>
<path d="M1791.02 1263.3C1791.02 1263.77 1771.35 1264.11 1747.08 1264.11C1722.82 1264.11 1703.15 1263.77 1703.15 1263.3C1703.15 1262.83 1722.82 1262.53 1747.08 1262.53C1771.35 1262.53 1791.02 1262.87 1791.02 1263.3Z" fill="#E0E0E0"/>
<path d="M1752.71 1289.11H1737.83V1330.51H1752.71V1289.11Z" fill="#FAFAFA"/>
<path d="M1707.42 966.779H1405.82V1492.1H1707.42V966.779Z" fill="#EBEBEB"/>
<path d="M1707.42 966.779H1566V1492.1H1707.42V966.779Z" fill="#E0E0E0"/>
<path d="M1496.18 1037.88H1469.07V1124.87H1496.18V1037.88Z" fill="#F5F5F5"/>
<path d="M1496.18 1378.41H1469.07V1465.4H1496.18V1378.41Z" fill="#F5F5F5"/>
<path d="M1566 1159.05C1566 1160.03 1530.15 1160.8 1485.93 1160.8C1441.7 1160.8 1405.82 1160.03 1405.82 1159.05C1405.82 1158.07 1441.67 1157.3 1485.93 1157.3C1530.18 1157.3 1566 1157.98 1566 1159.05Z" fill="#F5F5F5"/>
<path d="M1496.18 1209.47H1469.07V1296.46H1496.18V1209.47Z" fill="#F5F5F5"/>
<path d="M1566 1330.6C1566 1331.58 1530.15 1332.39 1485.93 1332.39C1441.7 1332.39 1405.82 1331.58 1405.82 1330.6C1405.82 1329.61 1441.67 1328.85 1485.93 1328.85C1530.18 1328.85 1566 1329.61 1566 1330.6Z" fill="#F5F5F5"/>
<path d="M1623.14 1037.88H1596.02V1124.87H1623.14V1037.88Z" fill="#F5F5F5"/>
<path d="M1681.99 1037.88H1654.87V1124.87H1681.99V1037.88Z" fill="#F5F5F5"/>
<path d="M1623.14 1203.02H1596.02V1290.01H1623.14V1203.02Z" fill="#F5F5F5"/>
<path d="M1681.99 1203.02H1654.87V1290.01H1681.99V1203.02Z" fill="#F5F5F5"/>
<path d="M1623.14 1368.11H1596.02V1455.1H1623.14V1368.11Z" fill="#F5F5F5"/>
<path d="M1681.99 1368.11H1654.87V1455.1H1681.99V1368.11Z" fill="#F5F5F5"/>
<path d="M1730.06 948.493H1383.14V967.421H1730.06V948.493Z" fill="#E0E0E0"/>
<path d="M1709.52 969.215C1709.52 970.197 1642.13 970.966 1558.98 970.966C1475.83 970.966 1408.44 970.197 1408.44 969.215C1408.44 968.232 1475.83 967.463 1558.98 967.463C1642.13 967.463 1709.52 968.232 1709.52 969.215Z" fill="#EBEBEB"/>
<path d="M498.503 1490.31H220.394L219.197 909.91H497.274L498.503 1490.31Z" fill="#EBEBEB"/>
<path d="M497.274 909.91H358.219V1490.35H497.274V909.91Z" fill="#E0E0E0"/>
<path d="M349.128 795.617H250.936V909.868H349.128V795.617Z" fill="#EBEBEB"/>
<path d="M349.128 795.617H325.736V909.868H349.128V795.617Z" fill="#E0E0E0"/>
<path d="M505.394 903.245H196V909.91H505.394V903.245Z" fill="#E0E0E0"/>
<path d="M297.622 959.729H274.068V1025.27H297.622V959.729Z" fill="white"/>
<path d="M358.219 1051.17C358.219 1051.85 327.095 1052.45 288.724 1052.45C250.353 1052.45 219.327 1051.68 219.327 1051.17C219.327 1050.65 250.418 1049.93 288.854 1049.93C327.29 1049.93 358.219 1050.31 358.219 1051.17Z" fill="#E0E0E0"/>
<path d="M437.873 959.729H414.32V1025.27H437.873V959.729Z" fill="#F5F5F5"/>
<path d="M498.503 1051.17C498.503 1051.85 467.347 1052.45 428.976 1052.45C390.605 1052.45 359.449 1051.85 359.449 1051.17C359.449 1050.48 390.573 1049.93 428.976 1049.93C467.379 1049.93 498.503 1050.31 498.503 1051.17Z" fill="#EBEBEB"/>
<path d="M437.873 1089.88H414.32V1155.42H437.873V1089.88Z" fill="#F5F5F5"/>
<path d="M498.503 1181.14C498.503 1181.82 467.347 1182.42 428.976 1182.42C390.605 1182.42 359.449 1181.82 359.449 1181.14C359.449 1180.46 390.573 1179.9 428.976 1179.9C467.379 1179.9 498.503 1180.46 498.503 1181.14Z" fill="#EBEBEB"/>
<path d="M437.873 1223.95H414.32V1289.49H437.873V1223.95Z" fill="#F5F5F5"/>
<path d="M498.503 1315.22C498.503 1315.9 467.347 1316.46 428.976 1316.46C390.605 1316.46 359.449 1315.9 359.449 1315.22C359.449 1314.53 390.573 1313.98 428.976 1313.98C467.379 1313.98 498.503 1314.53 498.503 1315.22Z" fill="#EBEBEB"/>
<path d="M437.873 1358.03H414.32V1423.57H437.873V1358.03Z" fill="#F5F5F5"/>
<path d="M498.503 1449.29C498.503 1449.98 467.347 1450.53 428.976 1450.53C390.605 1450.53 359.449 1449.98 359.449 1449.29C359.449 1448.61 390.573 1448.05 428.976 1448.05C467.379 1448.05 498.503 1448.52 498.503 1449.29Z" fill="#EBEBEB"/>
<path d="M297.622 1091.84H274.068V1157.38H297.622V1091.84Z" fill="white"/>
<path d="M358.219 1183.15C358.219 1183.83 327.095 1184.39 288.724 1184.39C250.353 1184.39 219.197 1183.83 219.197 1183.15C219.197 1182.46 250.289 1181.87 288.724 1181.87C327.16 1181.87 358.219 1182.46 358.219 1183.15Z" fill="#E0E0E0"/>
<path d="M297.622 1223.99H274.068V1289.54H297.622V1223.99Z" fill="white"/>
<path d="M358.219 1315.26C358.219 1315.94 327.095 1316.5 288.724 1316.5C250.353 1316.5 219.327 1316.07 219.327 1315.26C219.327 1314.45 250.418 1314.02 288.854 1314.02C327.29 1314.02 358.219 1314.57 358.219 1315.26Z" fill="#E0E0E0"/>
<path d="M297.622 1356.11H274.068V1421.65H297.622V1356.11Z" fill="white"/>
<path d="M358.219 1447.41C358.219 1448.1 327.095 1448.65 288.724 1448.65C250.353 1448.65 219.327 1448.1 219.327 1447.41C219.327 1446.73 250.418 1446.13 288.854 1446.13C327.29 1446.13 358.219 1446.69 358.219 1447.41Z" fill="#E0E0E0"/>
<path d="M776.612 1194.64H543.636L542.601 710.248H775.609L776.612 1194.64Z" fill="#EBEBEB"/>
<path d="M775.609 710.248H659.104V1194.64H775.609V710.248Z" fill="#E0E0E0"/>
<path d="M651.501 614.884H569.227V710.25H651.501V614.884Z" fill="#EBEBEB"/>
<path d="M651.502 614.884H631.896V710.25H651.502V614.884Z" fill="#E0E0E0"/>
<path d="M782.436 704.694H523.189V710.249H782.436V704.694Z" fill="#E0E0E0"/>
<path d="M608.342 751.822H588.607V806.512H608.342V751.822Z" fill="white"/>
<path d="M659.105 828.004C659.105 828.602 633.028 829.072 600.869 829.072C568.71 829.072 542.633 828.602 542.633 828.004C542.633 827.406 568.71 826.979 600.869 826.979C633.028 826.979 659.105 827.449 659.105 828.004Z" fill="#E0E0E0"/>
<path d="M725.85 751.822H706.114V806.512H725.85V751.822Z" fill="#F5F5F5"/>
<path d="M776.645 828.004C776.645 828.602 750.536 829.072 718.409 829.072C686.282 829.072 660.173 828.602 660.173 828.004C660.173 827.406 686.25 826.979 718.409 826.979C750.568 826.979 776.645 827.449 776.645 828.004Z" fill="#EBEBEB"/>
<path d="M725.85 860.433H706.114V915.123H725.85V860.433Z" fill="#F5F5F5"/>
<path d="M776.645 936.615C776.645 937.213 750.536 937.683 718.409 937.683C686.282 937.683 660.173 937.213 660.173 936.615C660.173 936.017 686.25 935.59 718.409 935.59C750.568 935.59 776.645 936.06 776.645 936.615Z" fill="#EBEBEB"/>
<path d="M725.85 972.335H706.114V1027.03H725.85V972.335Z" fill="#F5F5F5"/>
<path d="M776.645 1048.52C776.645 1049.07 750.536 1049.54 718.409 1049.54C686.282 1049.54 660.173 1049.07 660.173 1048.52C660.173 1047.96 686.25 1047.49 718.409 1047.49C750.568 1047.49 776.645 1047.92 776.645 1048.52Z" fill="#EBEBEB"/>
<path d="M725.85 1084.24H706.114V1138.93H725.85V1084.24Z" fill="#F5F5F5"/>
<path d="M776.645 1160.42C776.645 1160.97 750.536 1161.44 718.409 1161.44C686.282 1161.44 660.173 1160.97 660.173 1160.42C660.173 1159.86 686.25 1159.35 718.409 1159.35C750.568 1159.35 776.645 1159.82 776.645 1160.42Z" fill="#EBEBEB"/>
<path d="M608.342 862.099H588.607V916.789H608.342V862.099Z" fill="white"/>
<path d="M659.105 938.28C659.105 938.879 633.028 939.349 600.869 939.349C568.71 939.349 542.633 938.879 542.633 938.28C542.633 937.682 568.71 937.255 600.869 937.255C633.028 937.255 659.105 937.725 659.105 938.28Z" fill="#E0E0E0"/>
<path d="M608.342 972.377H588.607V1027.07H608.342V972.377Z" fill="white"/>
<path d="M659.105 1048.56C659.105 1049.11 633.028 1049.58 600.869 1049.58C568.71 1049.58 542.633 1049.11 542.633 1048.56C542.633 1048 568.71 1047.49 600.869 1047.49C633.028 1047.49 659.105 1047.96 659.105 1048.56Z" fill="#E0E0E0"/>
<path d="M608.342 1082.66H588.607V1137.35H608.342V1082.66Z" fill="white"/>
<path d="M659.105 1158.84C659.105 1159.39 633.028 1159.86 600.869 1159.86C568.71 1159.86 542.633 1159.39 542.633 1158.84C542.633 1158.28 568.71 1157.77 600.869 1157.77C633.028 1157.77 659.105 1158.24 659.105 1158.84Z" fill="#E0E0E0"/>
<path d="M1468.16 1411.61H1235.15L1234.15 659.661H1467.16L1468.16 1411.61Z" fill="#EBEBEB"/>
<path d="M1467.16 659.661H1350.66V1411.56H1467.16V659.661Z" fill="#E0E0E0"/>
<path d="M1343.02 564.295H1260.75V659.661H1343.02V564.295Z" fill="#EBEBEB"/>
<path d="M1343.02 564.295H1323.41V659.661H1343.02V564.295Z" fill="#E0E0E0"/>
<path d="M1473.99 654.106H1227.2V659.661H1473.99V654.106Z" fill="#E0E0E0"/>
<path d="M1299.89 701.276H1280.16V755.967H1299.89V701.276Z" fill="white"/>
<path d="M1350.66 777.459C1350.66 778.014 1324.58 778.484 1292.42 778.484C1260.26 778.484 1234.18 778.014 1234.18 777.459C1234.18 776.903 1260.26 776.391 1292.42 776.391C1324.58 776.391 1350.66 776.861 1350.66 777.459Z" fill="#E0E0E0"/>
<path d="M1417.4 701.276H1397.67V755.967H1417.4V701.276Z" fill="#F5F5F5"/>
<path d="M1468.16 777.459C1468.16 778.014 1442.09 778.484 1409.93 778.484C1377.77 778.484 1351.69 778.014 1351.69 777.459C1351.69 776.903 1377.77 776.391 1409.93 776.391C1442.09 776.391 1468.16 776.861 1468.16 777.459Z" fill="#EBEBEB"/>
<path d="M1417.4 809.887H1397.67V864.577H1417.4V809.887Z" fill="#F5F5F5"/>
<path d="M1468.16 886.07C1468.16 886.626 1442.09 887.096 1409.93 887.096C1377.77 887.096 1351.69 886.626 1351.69 886.07C1351.69 885.515 1377.77 885.002 1409.93 885.002C1442.09 885.002 1468.16 885.472 1468.16 886.07Z" fill="#EBEBEB"/>
<path d="M1417.4 921.746H1397.67V976.436H1417.4V921.746Z" fill="#F5F5F5"/>
<path d="M1468.16 997.927C1468.16 998.525 1442.09 998.995 1409.93 998.995C1377.77 998.995 1351.69 998.525 1351.69 997.927C1351.69 997.329 1377.77 996.901 1409.93 996.901C1442.09 996.901 1468.16 997.371 1468.16 997.927Z" fill="#EBEBEB"/>
<path d="M1417.4 1033.65H1397.67V1088.34H1417.4V1033.65Z" fill="#F5F5F5"/>
<path d="M1468.16 1109.83C1468.16 1110.43 1442.09 1110.9 1409.93 1110.9C1377.77 1110.9 1351.69 1110.43 1351.69 1109.83C1351.69 1109.23 1377.77 1108.8 1409.93 1108.8C1442.09 1108.8 1468.16 1109.27 1468.16 1109.83Z" fill="#EBEBEB"/>
<path d="M1299.89 811.554H1280.16V866.244H1299.89V811.554Z" fill="white"/>
<path d="M1350.66 887.693C1350.66 888.292 1324.58 888.762 1292.42 888.762C1260.26 888.762 1234.18 888.292 1234.18 887.693C1234.18 887.095 1260.26 886.668 1292.42 886.668C1324.58 886.668 1350.66 887.138 1350.66 887.693Z" fill="#E0E0E0"/>
<path d="M1299.89 921.788H1280.16V976.478H1299.89V921.788Z" fill="white"/>
<path d="M1350.66 997.97C1350.66 998.568 1324.58 999.038 1292.42 999.038C1260.26 999.038 1234.18 998.568 1234.18 997.97C1234.18 997.372 1260.26 996.944 1292.42 996.944C1324.58 996.944 1350.66 997.414 1350.66 997.97Z" fill="#E0E0E0"/>
<path d="M1299.89 1032.07H1280.16V1086.76H1299.89V1032.07Z" fill="white"/>
<path d="M1350.66 1108.25C1350.66 1108.85 1324.58 1109.32 1292.42 1109.32C1260.26 1109.32 1234.18 1108.85 1234.18 1108.25C1234.18 1107.65 1260.26 1107.22 1292.42 1107.22C1324.58 1107.22 1350.66 1107.69 1350.66 1108.25Z" fill="#E0E0E0"/>
<path d="M1097.65 675.511C1099.21 659.147 1083.19 645.603 1071.19 644.321C1065.46 643.637 1059.51 644.919 1054.07 642.185C1042.3 636.246 1037.61 614.327 1026.12 607.362C1017.55 602.15 1007.65 606.764 999.332 612.831C991.017 618.899 982.799 626.461 973.449 627.316C965.361 628.042 956.593 623.727 949.508 629.452C944.234 633.725 941.484 642.27 936.567 647.611C931.595 652.045 925.708 654.343 919.711 654.191C913.76 654.045 907.849 655.499 902.337 658.463C899.489 660.206 897.122 663.075 895.563 666.673C894.003 670.271 893.329 674.419 893.634 678.545L1097.65 675.511Z" fill="#EBEBEB"/>
<path d="M795.959 469.314C797.544 452.992 781.53 439.405 769.527 438.123C763.768 437.482 757.815 438.721 752.412 435.987C740.635 430.091 735.944 408.172 724.458 401.165C715.852 395.952 705.985 400.609 697.67 406.634C689.355 412.658 681.105 420.306 671.787 421.161C663.699 421.887 654.931 417.572 647.846 423.254C642.572 427.527 639.822 436.286 634.905 441.456C629.94 445.908 624.048 448.208 618.048 448.036C612.098 447.894 606.188 449.347 600.675 452.308C597.83 454.057 595.465 456.926 593.907 460.523C592.348 464.119 591.672 468.265 591.972 472.39L795.959 469.314Z" fill="#F5F5F5"/>
<path d="M1475.22 465.468C1476.35 453.676 1464.8 444.105 1456.13 442.994C1451.99 442.481 1447.68 443.421 1443.77 441.456C1435.29 437.183 1431.9 421.331 1423.61 416.29C1417.4 412.53 1410.28 415.905 1404.2 420.263C1398.12 424.621 1392.26 430.09 1385.57 430.731C1379.74 431.244 1373.4 428.125 1368.29 432.227C1364.47 435.303 1362.5 441.627 1358.97 445.344C1355.4 448.581 1351.14 450.255 1346.81 450.129C1342.52 449.963 1338.26 450.967 1334.29 453.077C1332.23 454.332 1330.52 456.401 1329.4 458.996C1328.27 461.592 1327.79 464.586 1328.01 467.562L1475.22 465.468Z" fill="#F5F5F5"/>
<path d="M1792.08 1331.94H285.502V1332.9H1792.08V1331.94Z" fill="#EBEBEB"/>
<path d="M1641.12 1393.88H1575.8V1394.84H1641.12V1393.88Z" fill="#EBEBEB"/>
<path d="M1324.05 1373.94H1221.27V1374.9H1324.05V1373.94Z" fill="#EBEBEB"/>
<path d="M1614.67 1358.15H1480.49V1359.12H1614.67V1358.15Z" fill="#EBEBEB"/>
<path d="M806.839 1377.56H773.272V1378.52H806.839V1377.56Z" fill="#EBEBEB"/>
<path d="M746.425 1377.56H630.75V1378.52H746.425V1377.56Z" fill="#EBEBEB"/>
<path d="M568.77 1361.31H485.305V1362.27H568.77V1361.31Z" fill="#EBEBEB"/>
<path d="M936.556 633.081L937.912 582.492L913.626 572.328C912.582 555.184 910.404 538.183 907.117 521.508L927.727 502.258L913.746 454.749L888.255 457.367C882.211 442.06 875.155 427.441 867.163 413.669L880.36 385.526L853.242 348.527L830.462 363.426C820.219 352.239 809.275 342.144 797.74 333.242L801.416 300.902L765.258 279.958L748.685 304.752C735.9 299.527 722.798 295.664 709.514 293.202L703.488 261.517L663.775 259.784L655.94 290.854C642.536 292.2 629.242 294.969 616.197 299.131L600.89 272.951L563.707 290.7L565.756 323.271C553.783 331.111 542.343 340.216 531.557 350.49L509.38 333.242L480.303 367.892L491.964 397.153C483.206 410.175 475.343 424.138 468.461 438.887L443.181 434.036L426.669 480.236L446.194 501.372C442.076 517.698 439.051 534.442 437.155 551.422L412.055 559.469L410.699 610.058L435.106 620.222C436.115 637.356 438.283 654.347 441.584 671.004L420.974 690.254L434.985 737.801L460.477 735.183C466.505 750.501 473.562 765.122 481.569 778.881L468.341 807.025L495.459 844.023L518.239 829.124C528.455 840.309 539.38 850.392 550.902 859.269L547.105 891.571L583.263 912.553L599.926 887.759C612.71 893.032 625.811 896.959 639.097 899.502L645.123 931.187L684.836 932.92L692.671 901.85C706.084 900.488 719.386 897.72 732.444 893.573L747.51 919.753L784.693 902.004L782.764 869.433C794.715 861.544 806.152 852.441 816.964 842.214L838.869 859.077L867.946 824.427L856.285 795.166C865.046 782.147 872.91 768.183 879.788 753.432L905.068 758.283L921.58 712.083L902.055 690.908C906.243 674.595 909.318 657.849 911.245 640.858L936.556 633.081ZM669.017 796.976C637.945 795.635 607.883 782.549 582.632 759.374C557.382 736.199 538.078 703.975 527.163 666.78C516.247 629.585 514.211 589.088 521.311 550.414C528.41 511.74 544.328 476.624 567.049 449.51C589.77 422.396 618.275 404.502 648.957 398.09C679.639 391.679 711.12 397.038 739.418 413.491C767.715 429.944 791.558 456.75 807.931 490.52C824.303 524.289 832.47 563.504 831.397 603.205C829.966 656.41 812.057 706.712 781.607 743.049C751.157 779.386 710.658 798.784 669.017 796.976Z" fill="#EBEBEB"/>
<path d="M1614.31 465.761L1624.28 453.865L1620.33 443.816C1623.34 439.314 1626.05 434.497 1628.44 429.417L1637.18 431.073L1642.81 415.134L1636.12 407.857C1637.56 402.222 1638.62 396.438 1639.28 390.571L1647.87 387.837L1648.29 370.358L1639.92 366.893C1639.55 360.973 1638.8 355.102 1637.69 349.337L1644.77 342.599L1639.95 326.237L1631.18 327.122C1629.06 321.845 1626.62 316.798 1623.86 312.03L1628.41 302.405L1619.04 289.623L1611.2 294.744C1607.67 290.905 1603.9 287.442 1599.93 284.387L1601.2 273.222L1588.75 265.946L1583.03 274.531C1578.61 272.773 1574.08 271.485 1569.5 270.681L1567.36 259.747L1553.68 259.093L1550.94 269.873C1546.32 270.324 1541.75 271.277 1537.26 272.722L1532.02 263.674L1519.18 269.796L1519.9 281.038C1515.76 283.713 1511.81 286.843 1508.09 290.393L1500.5 284.58L1490.49 296.476L1494.38 306.294C1491.35 310.784 1488.63 315.601 1486.25 320.693L1477.54 319.037L1471.87 334.976L1478.59 342.291C1477.2 347.919 1476.19 353.69 1475.58 359.54L1466.96 362.273L1466.54 379.752L1474.95 383.217C1475.29 389.138 1476.03 395.011 1477.15 400.773L1470.04 407.472L1474.86 423.835L1483.65 422.988C1485.77 428.265 1488.22 433.312 1490.98 438.08L1486.43 447.705L1495.8 460.487L1503.63 455.366C1507.15 459.217 1510.92 462.682 1514.9 465.723L1513.61 476.849L1526.08 484.126L1531.81 475.579C1536.23 477.319 1540.75 478.606 1545.33 479.429L1547.47 490.363L1561.15 491.017L1563.9 480.237C1568.51 479.789 1573.09 478.836 1577.57 477.388L1582.82 486.436L1595.65 480.314L1594.96 469.072C1599.09 466.393 1603.03 463.263 1606.74 459.717L1614.31 465.761ZM1543.13 392.111C1540.5 388.508 1538.77 383.989 1538.15 379.126C1537.53 374.263 1538.05 369.273 1539.65 364.789C1541.25 360.305 1543.85 356.527 1547.13 353.934C1550.41 351.341 1554.22 350.049 1558.07 350.221C1561.92 350.393 1565.65 352.023 1568.78 354.902C1571.91 357.782 1574.3 361.783 1575.65 366.399C1577 371.016 1577.25 376.039 1576.36 380.835C1575.48 385.631 1573.5 389.984 1570.67 393.343C1568.8 395.599 1566.6 397.358 1564.19 398.519C1561.78 399.679 1559.22 400.218 1556.64 400.103C1554.07 399.988 1551.54 399.223 1549.2 397.851C1546.86 396.479 1544.76 394.528 1543.01 392.111H1543.13Z" fill="#EBEBEB"/>
<path d="M1249.71 985.204L1218.56 957.676C1215.5 943.342 1211.3 929.448 1206.02 916.212L1214.01 876.172L1168.81 814.341L1136.99 821.771C1127.01 814.13 1116.44 807.821 1105.44 802.945L1086.1 761.326L1019.81 758.438L998.296 798.248C987.09 802.147 976.227 807.501 965.874 814.225L934.537 804.023L886.146 861.773L891.961 902.352C885.986 915.132 881.058 928.666 877.257 942.738L844.685 967.456L842.425 1052.16L873.611 1079.64C876.614 1094.06 880.806 1108.02 886.116 1121.3L878.04 1161L923.238 1222.83L954.846 1215.43C964.903 1223.08 975.544 1229.41 986.604 1234.3L1005.92 1275.84L1072.21 1278.77L1093.69 1238.96C1105 1235.06 1115.96 1229.69 1126.42 1222.94L1157.57 1233.11L1205.99 1175.36L1200.18 1134.78C1206.17 1122 1211.1 1108.45 1214.88 1094.35L1247.45 1069.63L1249.71 985.204ZM1043.46 1113.76C1028.75 1113.11 1014.51 1106.91 1002.55 1095.93C990.596 1084.95 981.456 1069.69 976.288 1052.07C971.12 1034.45 970.156 1015.27 973.518 996.953C976.881 978.636 984.419 962.004 995.178 949.16C1005.94 936.317 1019.44 927.838 1033.97 924.796C1048.5 921.754 1063.41 924.285 1076.81 932.07C1090.22 939.855 1101.52 952.544 1109.28 968.533C1117.04 984.521 1120.92 1003.09 1120.42 1021.89C1119.73 1047.11 1111.23 1070.95 1096.8 1088.17C1082.36 1105.4 1063.17 1114.6 1043.43 1113.76H1043.46Z" fill="#EBEBEB"/>
<path d="M1320.67 745.193H1320.46L1268.27 742.922C1267.22 742.897 1266.18 742.531 1265.27 741.858C1264.35 741.185 1263.58 740.227 1263.03 739.072L1248.96 708.849C1241.38 705.304 1234.04 700.951 1227.02 695.836L1204.52 700.803C1203.47 701.048 1202.39 700.951 1201.38 700.52C1200.36 700.089 1199.45 699.339 1198.73 698.339L1163.09 649.598C1162.34 648.588 1161.81 647.349 1161.54 646C1161.28 644.651 1161.29 643.238 1161.58 641.898L1167.27 613.369C1163.74 604.125 1160.86 594.501 1158.66 584.609L1135.97 564.589C1135.09 563.818 1134.37 562.774 1133.89 561.556C1133.42 560.337 1133.18 558.984 1133.22 557.621L1135 490.939C1135.04 489.592 1135.33 488.278 1135.86 487.11C1136.38 485.942 1137.12 484.957 1138.02 484.24L1161.73 466.26C1164.46 456.592 1167.86 447.251 1171.88 438.348L1167.73 409.357C1167.53 408.011 1167.61 406.624 1167.94 405.325C1168.28 404.026 1168.87 402.857 1169.65 401.927L1207.8 356.419C1208.59 355.46 1209.56 354.776 1210.61 354.432C1211.67 354.088 1212.77 354.096 1213.83 354.456L1236.24 361.771C1243.46 357.26 1250.97 353.563 1258.69 350.721L1274.36 321.731C1274.94 320.579 1275.76 319.647 1276.72 319.031C1277.67 318.416 1278.74 318.138 1279.81 318.227L1331.97 320.537C1333.03 320.566 1334.07 320.933 1334.99 321.606C1335.91 322.278 1336.69 323.234 1337.25 324.387L1351.32 354.648C1358.85 358.181 1366.13 362.535 1373.07 367.661L1395.85 362.31C1396.9 362.061 1397.98 362.157 1398.99 362.588C1400.01 363.019 1400.91 363.771 1401.64 364.774L1437.28 413.515C1438.03 414.529 1438.55 415.768 1438.82 417.115C1439.08 418.463 1439.07 419.874 1438.79 421.215L1433.06 449.821C1436.59 459.046 1439.5 468.643 1441.74 478.503L1464.4 498.523C1465.28 499.295 1465.99 500.339 1466.47 501.557C1466.95 502.776 1467.18 504.129 1467.14 505.492L1465.37 572.135C1465.33 573.487 1465.04 574.807 1464.51 575.981C1463.99 577.155 1463.25 578.148 1462.35 578.873L1438.64 596.853C1435.89 606.499 1432.49 615.824 1428.48 624.727L1432.64 653.756C1432.84 655.096 1432.76 656.477 1432.43 657.77C1432.09 659.063 1431.5 660.225 1430.71 661.148L1392.33 706.693C1391.54 707.649 1390.57 708.328 1389.51 708.666C1388.46 709.003 1387.35 708.987 1386.3 708.618L1364 701.342C1356.74 705.832 1349.19 709.528 1341.43 712.391L1325.92 741.343C1325.36 742.486 1324.59 743.435 1323.67 744.107C1322.76 744.778 1321.73 745.151 1320.67 745.193ZM1272.19 726.829L1317.39 728.792L1332.45 701.111C1333.29 699.495 1334.57 698.341 1336.04 697.877C1344.52 694.914 1352.75 690.877 1360.6 685.826C1361.97 684.984 1363.52 684.779 1365 685.249L1386.09 692.14L1419.23 652.678L1415.44 624.842C1415.14 622.897 1415.42 620.882 1416.22 619.183C1420.7 609.649 1424.38 599.546 1427.22 589.037C1427.7 587.132 1428.7 585.516 1430.05 584.494L1452.74 567.323L1454.28 509.573L1432.58 490.323C1431.44 489.326 1430.58 487.879 1430.14 486.203C1430.14 486.011 1430.14 485.78 1430.14 485.549C1427.82 474.907 1424.67 464.589 1420.74 454.749C1420.04 452.987 1419.87 450.962 1420.26 449.051L1425.68 421.793L1394.8 379.442L1373.13 384.525C1371.62 384.875 1370.06 384.52 1368.73 383.523C1361.26 377.794 1353.34 373.059 1345.11 369.394C1344.64 369.201 1344.18 368.942 1343.75 368.624C1342.89 367.931 1342.16 366.98 1341.64 365.852L1328.06 336.784L1282.86 334.782L1267.79 362.541C1266.89 364.168 1265.57 365.329 1264.06 365.813C1255.66 368.744 1247.53 372.755 1239.77 377.787C1238.4 378.679 1236.83 378.898 1235.34 378.403L1214.01 371.473L1180.86 410.936L1184.84 438.54C1185.08 440.281 1184.88 442.073 1184.27 443.661L1183.97 444.315C1179.48 453.885 1175.8 464.027 1172.97 474.576C1172.47 476.385 1171.49 477.912 1170.2 478.888L1147.51 496.098L1145.97 553.848L1167.7 573.098C1168.93 574.181 1169.83 575.791 1170.23 577.641C1172.48 588.452 1175.63 598.93 1179.6 608.903C1179.81 609.471 1179.98 610.064 1180.11 610.674C1180.34 611.941 1180.34 613.257 1180.11 614.524L1174.69 641.474L1205.57 683.824L1227.08 678.781C1228.59 678.429 1230.14 678.785 1231.45 679.782C1238.99 685.501 1246.95 690.234 1255.23 693.911C1256.72 694.478 1257.98 695.761 1258.75 697.492L1272.19 726.829ZM1300.12 653.794C1299.01 653.794 1297.89 653.794 1296.78 653.794C1271.73 653.231 1247.87 640.049 1230.39 617.118C1212.91 594.187 1203.23 563.362 1203.45 531.354C1203.67 499.345 1213.78 468.743 1231.57 446.209C1249.36 423.674 1273.4 411.031 1298.45 411.031C1323.5 411.031 1347.54 423.674 1365.33 446.209C1383.13 468.743 1393.23 499.345 1393.45 531.354C1393.67 563.362 1383.99 594.187 1366.51 617.118C1349.03 640.049 1325.17 653.231 1300.12 653.794ZM1300.12 426.297C1278.23 426.779 1257.38 438.29 1242.1 458.324C1226.82 478.358 1218.36 505.292 1218.55 533.263C1218.73 561.235 1227.56 587.979 1243.11 607.673C1258.66 627.367 1279.66 638.417 1301.55 638.417C1323.45 638.417 1344.45 627.367 1360 607.673C1375.55 587.979 1384.38 561.235 1384.56 533.263C1384.75 505.292 1376.29 478.358 1361.01 458.324C1345.73 438.29 1324.88 426.779 1302.99 426.297H1300.12Z" fill="#EBEBEB"/>
<path d="M1440.87 265.175L1419.23 257.783L1413.45 230.14L1421.92 219.36L1430.83 242.961L1449.34 254.395L1440.87 265.175Z" fill="#E0E0E0"/>
<path d="M1442.19 246.696C1443.13 245.5 1443.87 244.081 1444.38 242.519C1444.89 240.956 1445.15 239.282 1445.15 237.591C1445.15 235.9 1444.89 234.225 1444.38 232.663C1443.87 231.101 1443.13 229.681 1442.19 228.486C1441.26 227.29 1440.15 226.341 1438.93 225.694C1437.7 225.047 1436.39 224.714 1435.07 224.714C1433.75 224.714 1432.43 225.047 1431.21 225.694C1429.99 226.341 1428.88 227.29 1427.94 228.486L1438.7 207.85L1453.1 217.167L1456.27 236.417L1442.19 246.696Z" fill="#E0E0E0"/>
<path d="M1420.2 221.593L1436.05 201.342L1457.62 208.695L1463.44 236.3L1447.59 256.551L1425.98 249.12L1420.2 221.593ZM1448.97 238.148C1450.38 236.344 1451.34 234.045 1451.73 231.544C1452.12 229.042 1451.92 226.45 1451.16 224.094C1450.39 221.738 1449.1 219.724 1447.44 218.308C1445.78 216.891 1443.83 216.135 1441.83 216.135C1439.84 216.135 1437.89 216.891 1436.23 218.308C1434.57 219.724 1433.27 221.738 1432.51 224.094C1431.74 226.45 1431.54 229.042 1431.93 231.544C1432.32 234.045 1433.28 236.344 1434.69 238.148C1436.6 240.541 1439.17 241.874 1441.85 241.86C1444.52 241.846 1447.08 240.484 1448.97 238.071V238.148Z" fill="#F0F0F0"/>
<path d="M557.35 1002.03L568.95 998.024L572.054 983.202L567.534 977.427L562.743 990.093L552.8 996.215L557.35 1002.03Z" fill="#E0E0E0"/>
<path d="M556.687 992.095C555.781 990.772 555.302 989.058 555.347 987.301C555.393 985.543 555.96 983.873 556.933 982.63C557.906 981.386 559.213 980.662 560.588 980.604C561.964 980.546 563.305 981.158 564.341 982.316L558.586 971.267L550.661 976.195L548.974 986.59L556.687 992.095Z" fill="#E0E0E0"/>
<path d="M568.438 978.583L559.941 967.726L548.34 971.576L545.327 986.398L553.674 997.371L565.274 993.521L568.438 978.583ZM553.011 987.476C552.452 986.851 552 986.086 551.682 985.229C551.364 984.372 551.187 983.44 551.163 982.492C551.138 981.544 551.266 980.599 551.539 979.717C551.812 978.834 552.223 978.033 552.748 977.362C553.273 976.691 553.901 976.165 554.591 975.817C555.282 975.468 556.021 975.305 556.763 975.336C557.505 975.367 558.234 975.593 558.905 975.999C559.576 976.405 560.175 976.983 560.664 977.697C561.571 979.02 562.05 980.734 562.004 982.492C561.959 984.249 561.392 985.919 560.419 987.163C559.445 988.406 558.139 989.13 556.763 989.188C555.388 989.247 554.046 988.635 553.011 987.476Z" fill="#F0F0F0"/>
<path d="M515.587 189.484L525.23 201.804C526.435 203.318 528.059 204.167 529.749 204.167C531.44 204.167 533.063 203.318 534.269 201.804C535.447 200.258 536.106 198.186 536.106 196.029C536.106 193.872 535.447 191.799 534.269 190.254L524.657 177.972C523.447 176.467 521.826 175.625 520.137 175.625C518.449 175.625 516.827 176.467 515.618 177.972C514.438 179.506 513.774 181.569 513.768 183.72C513.762 185.871 514.415 187.94 515.587 189.484Z" fill="#F0F0F0"/>
<path d="M508.808 158.876C511.324 157.982 513.989 158.047 516.477 159.061C518.965 160.076 521.167 161.997 522.812 164.588C524.458 167.179 525.475 170.328 525.739 173.648C526.004 176.967 525.504 180.313 524.301 183.275C523.098 186.237 521.244 188.685 518.967 190.319C516.69 191.954 514.09 192.703 511.484 192.475C508.879 192.247 506.382 191.052 504.301 189.037C502.219 187.021 500.644 184.273 499.768 181.129C499.212 178.91 499.005 176.572 499.159 174.25C499.312 171.928 499.824 169.668 500.664 167.6C501.504 165.532 502.657 163.696 504.054 162.199C505.452 160.702 507.067 159.573 508.808 158.876Z" fill="#E0E0E0"/>
<path d="M498.321 179.068L499.717 184.032L528.358 170.886L526.962 165.922L498.321 179.068Z" fill="#F0F0F0"/>
<path d="M1094.33 1517.98C1440.78 1517.98 1721.63 1496.33 1721.63 1469.62C1721.63 1442.9 1440.78 1421.25 1094.33 1421.25C747.887 1421.25 467.036 1442.9 467.036 1469.62C467.036 1496.33 747.887 1517.98 1094.33 1517.98Z" fill="#F5F5F5"/>
<path d="M566.07 206.659C562.835 187.816 564.258 172.007 570.405 159.104C576.553 146.2 586.582 137.74 600.85 133.468C615.118 129.195 627.444 130.904 637.086 138.851C646.727 146.799 653.262 160.215 656.497 178.587C658.782 189.927 658.97 201.825 657.047 213.281C655.167 222.795 651.192 231.36 645.627 237.892C639.016 245.242 631.082 250.216 622.591 252.333C614.268 255.252 605.552 255.646 597.097 253.487C589.747 251.128 583.099 245.92 578.008 238.533C571.926 229.523 567.801 218.51 566.07 206.659ZM593.053 198.711C595.059 210.333 598.132 218.195 602.273 222.297C604.411 224.179 606.815 225.471 609.34 226.095C611.866 226.719 614.461 226.662 616.969 225.928C619.478 225.193 621.848 223.797 623.937 221.822C626.026 219.847 627.792 217.334 629.127 214.435C631.456 208.496 631.488 199.053 629.288 186.193C627.412 175.34 624.381 167.906 620.197 163.889C618.09 161.892 615.671 160.545 613.118 159.946C610.565 159.347 607.943 159.512 605.444 160.428C602.943 161.047 600.581 162.406 598.536 164.405C596.49 166.403 594.815 168.988 593.635 171.965C591.241 178.245 591.014 186.791 593.053 198.711Z" fill="#263238"/>
<path d="M669.18 192.56C668.031 186.737 667.826 180.66 668.578 174.725C669.331 168.79 671.024 163.133 673.548 158.122C676.376 152.799 679.973 148.266 684.131 144.783C688.29 141.301 692.928 138.937 697.78 137.827C710.441 134.039 720.837 136.018 728.969 143.766C735.812 150.772 740.464 160.858 742.039 172.102C743.615 183.345 742.002 194.962 737.51 204.737C732.463 214.906 724.245 221.685 712.857 225.075C704.083 228.314 694.722 227.314 686.456 222.255C682.037 219.402 678.177 215.237 675.179 210.085C672.182 204.933 670.129 198.935 669.18 192.56ZM693.477 185.168C694.132 191.139 696.339 196.622 699.721 200.678C701.062 202.018 702.607 202.956 704.25 203.428C705.893 203.9 707.594 203.894 709.235 203.41C710.876 202.926 712.418 201.976 713.752 200.627C715.087 199.277 716.184 197.559 716.966 195.594C718.66 189.854 718.819 183.524 717.419 177.648C716.738 171.818 714.555 166.476 711.239 162.523C709.952 161.145 708.442 160.178 706.826 159.696C705.21 159.215 703.532 159.232 701.921 159.746C700.243 160.205 698.665 161.164 697.309 162.548C695.952 163.932 694.852 165.706 694.092 167.736C692.35 173.273 692.132 179.441 693.477 185.168Z" fill="#263238"/>
<path d="M766.208 240.499L746.375 125.137L769.022 118.301L771.158 130.649C772.755 125.724 775.075 121.266 777.984 117.531C781.176 113.953 784.988 111.473 789.081 110.311C792.864 108.952 796.844 108.874 800.656 110.084C804.467 111.293 807.986 113.752 810.887 117.232C817.282 125.126 821.62 135.492 823.279 146.842C825.673 160.728 824.961 172.093 821.208 181.023C819.423 185.293 816.956 188.998 813.979 191.883C811.001 194.768 807.584 196.763 803.964 197.729C800.476 198.821 796.862 199.01 793.32 198.285C789.923 197.499 786.685 195.797 783.808 193.286L790.667 233.15L766.208 240.499ZM777.887 159.916C778.481 165.253 780.501 170.132 783.581 173.674C784.817 174.923 786.25 175.787 787.774 176.202C789.298 176.616 790.873 176.57 792.381 176.067C793.782 175.696 795.098 174.896 796.222 173.731C797.346 172.565 798.247 171.068 798.852 169.359C800.228 164.011 800.228 158.214 798.852 152.866C798.261 147.503 796.31 142.563 793.32 138.852C792.21 137.635 790.904 136.771 789.501 136.327C788.099 135.882 786.638 135.869 785.231 136.288C783.745 136.712 782.35 137.574 781.151 138.81C779.952 140.045 778.98 141.622 778.308 143.424C776.724 148.691 776.575 154.521 777.887 159.916Z" fill="#263238"/>
<path d="M833.664 162.438L857.218 152.226C858.47 155.233 860.421 157.63 862.782 159.063C865.323 160.035 868.013 160.112 870.584 159.288C873.155 158.463 875.518 156.765 877.438 154.363C877.975 153.609 878.365 152.693 878.573 151.696C878.782 150.698 878.803 149.648 878.635 148.637C878.441 147.481 877.989 146.427 877.337 145.612C876.686 144.798 875.865 144.259 874.979 144.066C871.324 143.536 867.635 143.536 863.979 144.066C857.843 144.755 851.674 144.755 845.538 144.066C841.946 143.377 838.578 141.346 835.832 138.212C832.902 134.863 830.879 130.345 830.067 125.342C829.256 120.338 829.701 115.122 831.335 110.482C833.222 105.518 836.154 101.378 839.779 98.5617C844.94 94.6897 850.547 91.9618 856.376 90.4863C861.941 88.4918 867.695 87.5708 873.459 87.7518C877.079 88.0596 880.588 89.526 883.682 92.0245C886.98 94.9625 889.779 98.7748 891.9 103.219L869.253 113.089C868.406 110.863 866.999 109.095 865.273 108.09C862.914 106.975 860.354 106.826 857.929 107.662C855.786 108.057 853.799 109.362 852.267 111.38C851.781 112.068 851.429 112.902 851.243 113.811C851.057 114.719 851.042 115.674 851.2 116.592C851.375 117.603 851.778 118.519 852.356 119.221C852.933 119.923 853.658 120.377 854.435 120.523C858.052 121.078 861.709 120.977 865.306 120.224C871.544 119.03 877.874 118.915 884.135 119.882C888.074 120.617 891.763 122.86 894.747 126.334C897.445 129.565 899.321 133.818 900.118 138.511C900.947 143.544 900.643 148.786 899.244 153.594C897.534 159.285 894.555 164.157 890.703 167.565C885.029 172.464 878.671 175.82 872.003 177.435C860.464 180.91 851.836 181.209 846.12 178.332C840.551 175.395 836.078 169.688 833.664 162.438Z" fill="#263238"/>
<path d="M912.671 56.7744H939.233V83.6922L934.348 137.827H917.912L912.671 83.7777V56.7744ZM913.965 145.988H938.748V174.956H913.965V145.988Z" fill="#263238"/>
<path d="M701.824 410.955H701.242C686.683 403.8 677.98 396.85 673.45 388.469C669.905 389.318 666.237 388.687 663 386.67C659.209 384.325 656.064 380.593 653.974 375.959C652.875 377.024 651.581 377.721 650.213 377.986C648.844 378.25 647.444 378.073 646.144 377.471C642.157 375.586 638.754 372.132 636.438 367.618C634.989 368.982 633.188 369.61 631.391 369.376C621.685 368.395 608.744 344.192 607.806 318.436C607.796 317.892 607.952 317.364 608.241 316.961C608.529 316.558 608.929 316.31 609.359 316.269C609.571 316.258 609.783 316.3 609.983 316.393C610.182 316.485 610.365 316.627 610.522 316.809C610.678 316.991 610.804 317.211 610.893 317.455C610.982 317.699 611.033 317.963 611.041 318.231C611.947 342.761 624.338 364.552 631.682 365.288C632.217 365.364 632.758 365.305 633.274 365.116C633.79 364.926 634.272 364.61 634.691 364.184C632.161 358.355 630.572 351.949 630.016 345.338C629.461 338.727 629.95 332.042 631.456 325.672C634.238 313.407 636.697 308.583 639.674 309.319C645.238 311.077 644.494 337.937 641.55 355.476C641.104 358.639 640.181 361.665 638.832 364.389C640.74 368.43 643.619 371.596 647.05 373.424C647.965 373.864 648.96 373.963 649.918 373.709C650.875 373.456 651.755 372.86 652.453 371.993C649.93 364.102 649.218 353.309 652.841 339.572C657.371 321.461 659.312 320.97 660.315 320.643C660.692 320.543 661.084 320.574 661.448 320.732C661.813 320.891 662.137 321.171 662.386 321.543C665.394 325.836 661.803 353.963 658.05 367.864C657.611 369.537 657.002 371.131 656.238 372.606C657.974 377.028 660.802 380.616 664.294 382.827C666.585 384.234 669.132 384.841 671.671 384.585C671.38 383.808 671.121 383.031 670.862 382.214C668.306 373.424 669.568 363.326 674.712 351.224C678.109 343.252 680.892 339.491 683.48 339.491C684.167 339.502 684.837 339.762 685.41 340.241C685.984 340.719 686.437 341.395 686.715 342.189C689.53 348.771 687.492 370.48 681.927 381.273C680.624 383.748 678.812 385.726 676.686 386.997C681.021 394.193 689.271 400.529 702.568 406.989C702.768 407.08 702.951 407.22 703.106 407.402C703.262 407.584 703.387 407.803 703.475 408.047C703.562 408.291 703.61 408.554 703.616 408.822C703.621 409.09 703.584 409.356 703.507 409.606C703.381 410.031 703.148 410.394 702.845 410.637C702.541 410.881 702.183 410.992 701.824 410.955ZM683.448 343.62C683.448 343.62 681.603 343.62 677.527 353.227C672.836 364.184 671.639 373.219 673.871 380.824C674.142 381.765 674.466 382.681 674.842 383.563C676.594 382.648 678.084 381.079 679.112 379.066C683.642 370.317 685.809 352.328 684.127 345.296C683.9 343.865 683.448 343.62 683.448 343.62ZM660.218 326.408C658.467 331.063 657.017 335.889 655.883 340.84C653.401 349.42 652.974 358.733 654.653 367.618L654.944 366.555C658.342 353.596 660.153 340.058 660.315 326.408H660.218ZM638.929 313.53C638.379 314.143 636.794 316.719 634.562 326.694C631.921 337.889 632.754 349.935 636.891 360.382C637.555 358.554 638.044 356.633 638.347 354.658C641.809 334.585 640.838 316.432 639.026 313.53H638.929Z" fill="#263238"/>
<path d="M824.832 625.266C819.66 625.329 814.567 623.649 810.079 620.401C809.709 620.12 809.442 619.667 809.333 619.14C809.224 618.613 809.283 618.053 809.497 617.58C809.603 617.349 809.745 617.148 809.914 616.988C810.083 616.828 810.276 616.712 810.481 616.647C810.686 616.582 810.899 616.57 811.108 616.611C811.316 616.652 811.517 616.745 811.697 616.885C823.247 625.429 838.162 619.46 841.235 613.205C841.457 612.813 841.615 612.368 841.698 611.898C841.781 611.427 841.789 610.94 841.72 610.466C835.814 610.895 829.966 608.791 825.123 604.497C816.873 597.997 816.226 596.034 816.291 594.481C816.307 594.034 816.417 593.601 816.611 593.227C816.804 592.853 817.073 592.552 817.391 592.355C820.626 590.31 835.217 598.773 841.3 603.843C842.029 604.455 842.702 605.168 843.306 605.969C845.696 605.284 847.85 603.651 849.453 601.308C850.355 599.968 851.008 598.39 851.362 596.688H850.715C845.538 597.342 840.362 594.521 834.829 588.062C831.011 583.646 829.556 580.58 830.041 578.168C830.188 577.49 830.485 576.88 830.898 576.409C831.311 575.938 831.822 575.626 832.37 575.511C836.835 574.08 847.9 580.049 852.397 586.304C853.4 587.664 854.112 589.324 854.468 591.128C858.706 588.634 863.171 582.951 868.444 573.671C868.567 573.45 868.723 573.262 868.903 573.117C869.084 572.973 869.285 572.875 869.496 572.829C869.706 572.784 869.922 572.791 870.13 572.851C870.338 572.912 870.535 573.023 870.709 573.18C871.055 573.5 871.29 573.978 871.362 574.512C871.435 575.046 871.34 575.595 871.097 576.042C864.982 586.835 859.871 592.968 854.759 595.462C854.494 598.483 853.513 601.334 851.944 603.638C850.08 606.376 847.631 608.377 844.891 609.403C845.045 610.379 845.044 611.384 844.889 612.359C844.733 613.335 844.426 614.261 843.985 615.086C841.267 620.932 833.438 625.266 824.832 625.266ZM821.953 596.893C823.053 597.915 824.606 599.264 826.838 600.981C830.317 603.946 834.314 605.798 838.485 606.378C833.278 602.432 827.731 599.249 821.953 596.893ZM833.244 579.517C834.173 581.728 835.464 583.665 837.029 585.2C841.817 590.801 846.185 593.377 850.391 592.723H851.426C851.196 591.453 850.705 590.282 850.003 589.329C845.473 582.87 835.509 578.863 833.244 579.517Z" fill="#263238"/>
<path d="M867.668 619.665L817.261 631.235L771.481 315.533L674.227 337.856L515.696 693.541L532.714 810.917L736.054 764.269L749.966 860.264L847.22 837.86L833.308 741.865L883.715 730.295L867.668 619.665ZM612.562 678.414L696.681 492.109L720.137 653.762L612.562 678.414Z" fill="#1C3D87"/>
<path d="M1273.67 294.11C1272.14 274.264 1268.66 254.735 1263.32 235.973C1257.82 218.002 1250.18 201.196 1240.67 186.137C1229.41 168.616 1215.42 154.201 1199.58 143.781C1182.33 131.816 1159.44 123.49 1130.93 118.802C1071.72 109.044 1025.58 122.318 992.519 158.622C959.454 194.927 937.67 264.428 927.165 367.127C922.972 405.509 921.887 444.331 923.93 482.991C926.087 518.423 931.242 546.946 939.395 568.56C949.77 597.707 966.137 622.808 986.793 641.251C1007.22 659.376 1035.26 671.355 1070.91 677.187C1134.28 687.626 1181.27 672.24 1211.87 631.03C1242.48 589.819 1262.76 520.181 1272.7 422.116C1277.12 379.654 1277.44 336.671 1273.67 294.11Z" fill="#1C3D87"/>
<path d="M1100.06 635.199C1092.26 634.872 1083.88 633.973 1075.44 632.583C1045.8 627.718 1022.9 618.233 1007.3 604.414C991.752 590.538 979.456 571.609 971.716 549.63L971.554 549.181C965.342 532.827 961.266 509.319 959.486 479.679C957.601 444.075 958.599 408.321 962.463 372.973C974.013 259.644 997.857 212.342 1015.81 192.636C1036.78 169.66 1065.09 159.275 1102.29 160.911C1109.93 161.238 1118.02 162.096 1126.33 163.446C1150.21 167.534 1169.14 174.075 1182.53 183.315C1194.1 190.847 1204.35 201.264 1212.65 213.937C1219.91 225.383 1225.75 238.163 1229.96 251.836C1234.26 267.081 1237.04 282.943 1238.24 299.056C1241.69 338.099 1241.38 377.526 1237.3 416.473C1228.34 504.536 1211 566.433 1185.8 600.448C1167.1 625.632 1139.05 637.243 1100.03 635.363L1100.06 635.199Z" fill="#263238"/>
<path d="M1163.38 295.296L1163.8 279.801L1156.26 276.694C1155.94 271.454 1155.27 266.256 1154.25 261.159L1160.72 255.19L1156.39 240.635L1148.49 241.453C1146.64 236.775 1144.47 232.303 1142.02 228.084L1146.1 219.457L1137.69 208.133L1130.63 212.712C1127.48 209.283 1124.1 206.193 1120.54 203.472L1121.67 193.578L1110.48 187.16L1105.37 194.764C1101.41 193.143 1097.35 191.939 1093.23 191.166L1091.33 181.477L1079.03 180.945L1076.61 190.43C1072.46 190.85 1068.35 191.697 1064.31 192.965L1059.55 184.788L1048.04 190.226L1048.68 200.201C1044.98 202.549 1041.44 205.284 1038.1 208.378L1031.31 203.186L1022.32 213.775L1025.94 222.728C1023.22 226.713 1020.78 230.996 1018.66 235.525L1010.83 234.012L1005.72 248.158L1011.77 254.617C1010.46 259.623 1009.5 264.768 1008.92 269.989L1001.22 272.442L1000.8 287.896L1008.34 291.003C1008.66 296.258 1009.33 301.47 1010.35 306.58L1003.87 312.508L1008.21 327.063L1016.1 326.245C1017.94 330.936 1020.11 335.41 1022.58 339.614L1018.47 348.24L1026.88 359.565L1033.93 355.027C1037.09 358.442 1040.46 361.519 1044.03 364.226L1042.86 374.119L1054.05 380.538L1059.2 372.975C1063.17 374.587 1067.24 375.776 1071.36 376.532L1073.27 386.262L1085.53 386.793L1087.96 377.267C1092.12 376.868 1096.24 376.02 1100.29 374.733L1104.98 382.909L1116.5 377.472L1115.88 367.537C1119.57 365.159 1123.11 362.426 1126.46 359.361L1133.26 364.512L1142.25 353.923L1138.66 344.97C1141.37 340.998 1143.79 336.729 1145.91 332.214L1153.74 333.686L1158.85 319.54L1152.83 313.08C1154.12 308.083 1155.06 302.953 1155.64 297.749L1163.38 295.296ZM1080.55 345.46C1070.97 345.018 1061.71 340.998 1053.93 333.908C1046.15 326.818 1040.21 316.976 1036.86 305.625C1033.51 294.273 1032.89 281.92 1035.09 270.125C1037.28 258.33 1042.2 247.622 1049.2 239.352C1056.21 231.083 1065 225.622 1074.47 223.66C1083.93 221.698 1093.64 223.322 1102.37 228.327C1111.1 233.333 1118.47 241.495 1123.53 251.784C1128.6 262.073 1131.14 274.027 1130.83 286.138C1130.62 294.211 1129.16 302.153 1126.52 309.508C1123.88 316.863 1120.12 323.487 1115.44 328.999C1110.77 334.511 1105.29 338.803 1099.3 341.628C1093.31 344.453 1086.94 345.755 1080.55 345.46Z" fill="#1C3D87"/>
<path opacity="0.3" d="M1214.43 579.762L1215.34 569.296L1210.35 566.761C1210.35 563.199 1210.11 559.644 1209.64 556.131L1214.14 552.493L1211.84 542.394H1206.47C1205.41 539.11 1204.12 535.95 1202.62 532.95L1205.66 527.39L1200.49 519.213L1195.54 521.83C1193.53 519.322 1191.37 517.025 1189.07 514.962L1190.26 508.338L1182.98 503.269L1179.16 508.134C1176.56 506.782 1173.88 505.701 1171.14 504.904L1170.24 498.24L1161.99 497.055L1159.95 503.351C1157.14 503.367 1154.33 503.696 1151.57 504.332L1148.69 498.526L1140.7 501.511V508.298C1138.1 509.654 1135.6 511.296 1133.22 513.204L1128.82 509.115L1122.35 515.657L1124.42 521.912C1122.45 524.449 1120.64 527.183 1119.02 530.088L1113.78 528.617L1109.8 537.815L1113.62 542.599C1112.53 545.892 1111.68 549.298 1111.06 552.779L1105.76 553.883L1104.88 564.308L1109.83 566.924C1109.83 570.461 1110.08 573.991 1110.58 577.472L1106.01 581.111L1108.34 591.209H1113.75C1114.83 594.477 1116.13 597.623 1117.63 600.612L1114.39 606.172L1119.57 614.349L1124.59 611.692C1126.58 614.208 1128.74 616.493 1131.06 618.519L1129.92 625.265L1137.2 630.294L1140.99 625.51C1143.59 626.831 1146.27 627.883 1149.01 628.658L1149.95 635.363L1158.2 636.508L1160.21 630.253C1163.07 630.248 1165.92 629.947 1168.75 629.353L1171.63 635.118L1179.59 632.174V625.388C1182.19 624.006 1184.7 622.366 1187.09 620.482L1191.43 624.57L1197.9 617.988L1195.79 611.733C1197.79 609.197 1199.62 606.463 1201.26 603.556L1206.47 605.028L1210.48 595.829L1206.67 591.087C1207.71 587.795 1208.54 584.405 1209.16 580.947L1214.43 579.762ZM1172.79 575.673C1171.42 578.839 1169.34 581.42 1166.81 583.09C1164.28 584.761 1161.42 585.445 1158.58 585.057C1155.74 584.669 1153.06 583.226 1150.87 580.91C1148.68 578.595 1147.08 575.511 1146.28 572.049C1145.48 568.587 1145.51 564.902 1146.36 561.461C1147.22 558.019 1148.86 554.976 1151.09 552.716C1153.31 550.457 1156.02 549.081 1158.86 548.765C1161.71 548.449 1164.56 549.205 1167.06 550.939C1170.41 553.269 1172.89 557.179 1173.97 561.814C1175.04 566.448 1174.62 571.431 1172.79 575.673Z" fill="#1C3D87"/>
<path d="M1260.27 403.064L1250.57 394.642C1249.61 390.264 1248.31 386.018 1246.69 381.968L1249.15 369.703L1235.17 350.774L1225.46 353.063C1222.38 350.747 1219.13 348.816 1215.76 347.299L1209.77 334.543L1189.29 333.685L1182.63 345.95C1179.16 347.138 1175.8 348.783 1172.6 350.856L1162.89 347.708L1147.91 365.41L1149.72 377.675C1147.86 381.548 1146.34 385.66 1145.16 389.94L1135.1 397.504L1134.39 423.383L1144.09 431.805C1145.03 436.215 1146.34 440.49 1147.98 444.56L1145.52 456.825L1159.49 475.754L1169.2 473.506C1172.28 475.819 1175.53 477.749 1178.91 479.27L1184.86 491.985L1205.37 492.885L1212 480.62C1215.5 479.42 1218.89 477.776 1222.13 475.714L1231.84 478.821L1246.82 461.159L1245.04 448.894C1246.88 445.007 1248.4 440.898 1249.6 436.629L1259.66 429.066L1260.27 403.064ZM1196.44 442.394C1191.89 442.196 1187.48 440.297 1183.78 436.935C1180.08 433.574 1177.26 428.902 1175.66 423.511C1174.06 418.119 1173.76 412.249 1174.81 406.645C1175.85 401.04 1178.18 395.951 1181.51 392.022C1184.84 388.094 1189.02 385.501 1193.52 384.573C1198.02 383.645 1202.63 384.423 1206.78 386.808C1210.92 389.194 1214.42 393.08 1216.82 397.974C1219.21 402.869 1220.41 408.553 1220.25 414.307C1220.03 422.017 1217.4 429.304 1212.94 434.569C1208.48 439.834 1202.54 442.647 1196.44 442.394Z" fill="white"/>
<path d="M1330.51 196.48L1332.2 191.37C1333.34 190.555 1334.42 189.611 1335.43 188.549H1339.18L1343.58 180.372L1342.16 175.998C1342.71 174.541 1343.14 173.021 1343.45 171.46L1346.69 167.698L1345.33 158.091L1341.25 155.965C1340.62 154.515 1339.87 153.146 1339.02 151.877V147.134L1332.71 141.574L1329.22 143.414C1327.94 142.845 1326.62 142.461 1325.27 142.269L1322.3 138.181L1314.73 139.898L1313.01 145.049C1311.81 145.836 1310.67 146.767 1309.61 147.829H1305.89L1301.49 156.006L1302.92 160.38C1302.48 162 1302.18 163.671 1302.01 165.368L1298.77 169.17L1300.13 178.737L1304.21 180.863C1304.83 182.32 1305.56 183.69 1306.41 184.951V189.653L1312.88 195.213L1316.34 193.414C1317.64 193.946 1318.97 194.315 1320.32 194.518L1323.3 198.606L1330.51 196.48ZM1314.34 169.988C1314.03 167.855 1314.23 165.655 1314.92 163.667C1315.6 161.678 1316.74 159.991 1318.18 158.818C1319.62 157.646 1321.31 157.04 1323.02 157.079C1324.74 157.117 1326.41 157.798 1327.81 159.035C1329.22 160.271 1330.31 162.009 1330.94 164.026C1331.57 166.044 1331.71 168.252 1331.34 170.37C1330.97 172.488 1330.12 174.421 1328.88 175.925C1327.65 177.429 1326.09 178.436 1324.4 178.819C1322.14 179.32 1319.81 178.673 1317.93 177.019C1316.05 175.366 1314.75 172.839 1314.34 169.988Z" fill="#1C3D87"/>
<path d="M1241.9 169.374L1239.41 166.716C1244.74 158.349 1251.34 151.401 1258.82 146.274L1260.34 149.872C1253.23 154.763 1246.96 161.392 1241.9 169.374Z" fill="#1C3D87"/>
<path d="M1267.72 146.112L1266.45 142.351C1278.4 135.79 1291.47 133.147 1304.44 134.665L1304.11 138.753C1291.68 137.273 1279.16 139.805 1267.72 146.112Z" fill="#1C3D87"/>
<path d="M1261.6 174.403L1258.95 172.114C1266.74 158.813 1278.09 149.532 1290.88 145.989L1291.5 150.078C1279.54 153.377 1268.93 162.014 1261.6 174.403Z" fill="#1C3D87"/>
<path d="M1046.9 568.029C1046.46 568.012 1046.05 567.777 1045.74 567.374L1038.98 558.544C1035.53 558.149 1032.12 557.355 1028.79 556.172L1018.21 562.06C1017.97 562.221 1017.71 562.305 1017.45 562.305C1017.18 562.305 1016.92 562.221 1016.69 562.06L998.957 547.219C998.728 547.029 998.543 546.767 998.418 546.458C998.293 546.15 998.234 545.807 998.245 545.461V530.906C996.082 527.486 994.175 523.818 992.551 519.95L983.46 515.534C983.205 515.41 982.98 515.206 982.804 514.941C982.629 514.677 982.51 514.36 982.457 514.022L978.251 487.693C978.195 487.356 978.208 487.008 978.287 486.679C978.366 486.35 978.51 486.052 978.704 485.812L985.692 477.267C986.026 472.915 986.654 468.607 987.569 464.389L982.91 451.02C982.783 450.726 982.716 450.395 982.716 450.06C982.716 449.724 982.783 449.393 982.91 449.099L994.654 426.695C994.8 426.4 995.006 426.16 995.251 426.002C995.496 425.843 995.771 425.772 996.045 425.795L1007.56 426C1010.26 423.252 1013.17 420.842 1016.23 418.804L1019.76 407.316C1019.85 406.997 1020.01 406.714 1020.21 406.492C1020.42 406.27 1020.66 406.118 1020.93 406.049L1041.76 400.734C1042.03 400.659 1042.3 400.673 1042.56 400.773C1042.82 400.874 1043.06 401.057 1043.25 401.306L1050.01 410.137C1053.47 410.535 1056.89 411.329 1060.23 412.508L1070.78 406.621C1071.02 406.46 1071.29 406.376 1071.56 406.376C1071.83 406.376 1072.1 406.46 1072.33 406.621L1090.03 421.462C1090.26 421.66 1090.44 421.923 1090.57 422.228C1090.7 422.534 1090.77 422.873 1090.78 423.22L1090.58 437.774C1092.76 441.193 1094.67 444.862 1096.31 448.731L1105.37 453.187C1105.62 453.305 1105.84 453.502 1106.02 453.759C1106.19 454.017 1106.32 454.326 1106.37 454.659L1110.61 480.988C1110.66 481.324 1110.64 481.671 1110.56 481.998C1110.49 482.326 1110.35 482.624 1110.16 482.868L1103.13 491.454C1102.81 495.795 1102.18 500.091 1101.26 504.291L1105.92 517.66C1106.04 517.962 1106.11 518.299 1106.11 518.641C1106.11 518.984 1106.04 519.321 1105.92 519.623L1094.33 541.822C1094.18 542.1 1093.98 542.327 1093.74 542.484C1093.51 542.64 1093.24 542.722 1092.98 542.722L1081.43 542.517C1078.72 545.228 1075.83 547.636 1072.79 549.713L1069.26 561.201C1069.16 561.525 1069 561.812 1068.79 562.034C1068.58 562.256 1068.33 562.406 1068.06 562.468L1047.23 568.029H1046.9ZM1028.69 551.675C1028.84 551.638 1028.99 551.638 1029.14 551.675C1032.64 552.961 1036.22 553.797 1039.85 554.169C1040.24 554.227 1040.6 554.442 1040.89 554.782L1047.36 563.368L1066.45 558.503L1069.88 547.301C1070.03 546.848 1070.31 546.474 1070.65 546.238C1073.88 544.126 1076.93 541.591 1079.74 538.674C1080.04 538.357 1080.42 538.196 1080.81 538.225L1092.04 538.429L1102.78 517.987L1098.25 504.986C1098.12 504.537 1098.12 504.045 1098.25 503.596C1099.25 499.176 1099.91 494.644 1100.22 490.064C1100.26 489.569 1100.43 489.105 1100.71 488.756L1107.5 480.579L1103.65 456.458L1094.82 452.124C1094.44 451.95 1094.13 451.599 1093.95 451.143C1092.27 447.065 1090.26 443.215 1087.96 439.655C1087.73 439.281 1087.61 438.82 1087.61 438.346V424.119L1071.43 410.546L1061.17 416.269C1060.81 416.435 1060.41 416.435 1060.04 416.269C1056.53 414.99 1052.94 414.154 1049.3 413.776C1048.91 413.718 1048.55 413.502 1048.26 413.162L1041.79 404.577L1022.7 409.483L1019.31 420.848C1019.17 421.317 1018.91 421.709 1018.56 421.952C1015.32 424.059 1012.26 426.594 1009.44 429.516C1009.3 429.675 1009.14 429.797 1008.96 429.875C1008.78 429.952 1008.59 429.983 1008.4 429.965L997.178 429.761L986.404 450.203L990.934 463.204C991.037 463.478 991.091 463.778 991.091 464.083C991.091 464.387 991.037 464.687 990.934 464.961C989.975 469.277 989.347 473.699 989.057 478.167C989.027 478.663 988.854 479.128 988.572 479.475L981.778 487.652L985.66 511.773L994.46 516.107C994.853 516.313 995.174 516.69 995.366 517.17C997.034 521.221 999.029 525.043 1001.32 528.576C1001.56 528.943 1001.69 529.408 1001.67 529.884V544.112L1017.85 557.685L1028.14 551.961C1028.31 551.826 1028.49 551.729 1028.69 551.675ZM1044.58 538.429C1036.79 538.42 1029.15 535.745 1022.47 530.688C1015.79 525.631 1010.32 518.381 1006.64 509.709C1002.96 501.036 1001.2 491.266 1001.57 481.436C1001.93 471.606 1004.39 462.084 1008.7 453.882C1012.81 446.013 1018.47 439.629 1025.13 435.354C1031.78 431.079 1039.2 429.059 1046.65 429.491C1054.11 429.924 1061.35 432.795 1067.66 437.823C1073.98 442.851 1079.15 449.864 1082.68 458.176C1086.21 466.488 1087.97 475.815 1087.79 485.244C1087.61 494.674 1085.5 503.883 1081.65 511.971C1077.81 520.058 1072.38 526.748 1065.88 531.386C1059.38 536.024 1052.04 538.451 1044.58 538.429ZM1011.41 456.131C1007.06 464.434 1004.75 474.182 1004.78 484.143C1004.81 494.104 1007.17 503.83 1011.58 512.092C1015.98 520.354 1022.22 526.781 1029.52 530.56C1036.81 534.339 1044.83 535.3 1052.55 533.323C1060.28 531.345 1067.37 526.517 1072.92 519.449C1078.47 512.381 1082.25 503.391 1083.76 493.615C1085.27 483.839 1084.45 473.716 1081.41 464.526C1078.37 455.336 1073.24 447.492 1066.67 441.985C1062.32 438.301 1057.43 435.743 1052.28 434.46C1047.14 433.176 1041.85 433.193 1036.71 434.508C1031.57 435.823 1026.69 438.411 1022.35 442.122C1018.01 445.833 1014.29 450.594 1011.41 456.131Z" fill="white"/>
<path d="M1663.2 656.542L1612.41 647.874L1645.99 329.761L1548.02 313.08L1310.39 589.534L1297.9 707.809L1502.67 742.724L1492.44 839.495L1590.41 856.175L1600.63 759.445L1651.43 768.112L1663.2 656.542ZM1406.25 612.715L1531.65 468.274L1514.44 631.153L1406.25 612.715Z" fill="#1C3D87"/>
<path d="M986.425 966.135C990.797 869.123 982.776 692.726 1115.24 716.113C1257.2 741.102 1216.59 969.686 1216.59 969.686L986.425 966.135Z" fill="#263238"/>
<path d="M1077.84 907.839C1109.77 907.839 1135.65 872.2 1135.65 828.237C1135.65 784.275 1109.77 748.636 1077.84 748.636C1045.9 748.636 1020.02 784.275 1020.02 828.237C1020.02 872.2 1045.9 907.839 1077.84 907.839Z" fill="white"/>
<path d="M1085.45 748.768C1058.05 742.358 1028.83 770.119 1025.9 798.27L1134.46 812.042C1130.62 779.95 1107.15 753.878 1085.45 748.768Z" fill="#263238"/>
<path d="M1122.09 826.247C1121.31 847.079 1113.07 863.406 1103.69 862.713C1094.32 862.02 1087.34 844.654 1087.97 823.735C1088.59 802.817 1096.99 786.576 1106.37 787.269C1115.74 787.962 1122.85 805.459 1122.09 826.247Z" fill="#263238"/>
<path d="M1077.84 912.171C1065.78 912.171 1053.99 907.248 1043.97 898.026C1033.94 888.803 1026.13 875.695 1021.51 860.358C1016.9 845.021 1015.69 828.145 1018.04 811.864C1020.4 795.583 1026.2 780.627 1034.73 768.889C1043.25 757.151 1054.12 749.157 1065.94 745.918C1077.77 742.68 1090.03 744.342 1101.16 750.695C1112.3 757.047 1121.82 767.805 1128.52 781.608C1135.22 795.411 1138.8 811.638 1138.8 828.238C1138.78 850.492 1132.35 871.827 1120.92 887.562C1109.49 903.298 1094 912.148 1077.84 912.171ZM1077.84 753.011C1067.02 753.011 1056.45 757.426 1047.46 765.699C1038.47 773.972 1031.46 785.73 1027.32 799.487C1023.19 813.243 1022.11 828.38 1024.22 842.982C1026.33 857.584 1031.54 870.996 1039.19 881.521C1046.84 892.046 1056.58 899.212 1067.19 902.111C1077.8 905.011 1088.79 903.514 1098.78 897.81C1108.77 892.107 1117.3 882.452 1123.31 870.068C1129.31 857.684 1132.51 843.127 1132.51 828.238C1132.49 808.286 1126.72 789.159 1116.47 775.054C1106.22 760.95 1092.33 753.022 1077.84 753.011Z" fill="#407BFF"/>
<path opacity="0.3" d="M1200.45 963.709H1200.07C1199.87 963.648 1199.68 963.532 1199.51 963.367C1199.34 963.202 1199.2 962.992 1199.09 962.75C1198.98 962.507 1198.91 962.237 1198.88 961.955C1198.85 961.674 1198.86 961.386 1198.91 961.11C1198.91 960.547 1209.04 901.82 1198.63 842.444C1198.53 841.87 1198.6 841.264 1198.82 840.76C1199.05 840.257 1199.41 839.897 1199.82 839.759C1200.24 839.621 1200.68 839.717 1201.05 840.025C1201.41 840.334 1201.67 840.83 1201.77 841.405C1212.37 902.037 1202.15 961.543 1202.06 962.106C1201.96 962.586 1201.75 963.008 1201.46 963.299C1201.17 963.591 1200.81 963.736 1200.45 963.709Z" fill="white"/>
<path opacity="0.3" d="M1191.68 809.878C1191.37 809.873 1191.08 809.753 1190.82 809.531C1190.57 809.31 1190.36 808.995 1190.23 808.622C1186.32 796.724 1181.31 785.573 1175.32 775.447C1175.06 775.004 1174.93 774.437 1174.98 773.869C1175.02 773.302 1175.22 772.779 1175.54 772.416C1175.7 772.231 1175.88 772.093 1176.08 772.008C1176.28 771.923 1176.49 771.894 1176.7 771.923C1176.91 771.951 1177.11 772.036 1177.29 772.172C1177.48 772.309 1177.64 772.495 1177.77 772.719C1183.91 783.139 1189.06 794.592 1193.09 806.803C1193.18 807.058 1193.23 807.336 1193.24 807.619C1193.25 807.902 1193.22 808.185 1193.15 808.452C1193.08 808.718 1192.97 808.963 1192.83 809.17C1192.69 809.378 1192.52 809.545 1192.34 809.661C1192.13 809.794 1191.9 809.868 1191.68 809.878Z" fill="white"/>
<path d="M691.618 1421.22H690.454C686.283 1421.06 682.329 1418.63 679.462 1414.45C676.595 1410.28 675.05 1404.71 675.166 1398.96C675.283 1393.22 677.052 1387.78 680.084 1383.83C683.117 1379.88 687.163 1377.75 691.335 1377.92H691.618C700.709 1377.92 722.571 1362.71 768.308 1263.45C769.522 1260.81 771.136 1258.57 773.038 1256.87C774.941 1255.18 777.088 1254.06 779.332 1253.62C781.575 1253.17 783.863 1253.39 786.038 1254.28C788.213 1255.16 790.223 1256.68 791.931 1258.73C827.85 1301.24 867.023 1338.24 908.759 1369.08C910.691 1370.29 912.424 1372.03 913.856 1374.18C915.288 1376.34 916.388 1378.87 917.09 1381.63C917.792 1384.38 918.082 1387.31 917.941 1390.22C917.801 1393.14 917.234 1395.98 916.274 1398.59C915.314 1401.19 913.981 1403.51 912.356 1405.38C910.73 1407.26 908.845 1408.67 906.815 1409.51C904.784 1410.36 902.65 1410.64 900.541 1410.32C898.432 1410 896.391 1409.1 894.541 1407.67C855.752 1379.29 819.086 1345.72 785.074 1307.45C746.729 1386.92 718.293 1421.22 691.618 1421.22Z" fill="#263238"/>
<path d="M788.944 1254.83H787.591C785.119 1254.34 782.89 1252.52 781.392 1249.76C779.895 1247.01 779.251 1243.56 779.601 1240.15C781.835 1218.5 779.066 1137.81 759.218 1075.01C758.337 1072.24 758.189 1069.13 758.797 1066.22C759.406 1063.31 760.734 1060.78 762.552 1059.08C805.647 1018.67 897.436 1013.82 901.336 1013.64C902.575 1013.59 903.811 1013.87 904.971 1014.47C906.132 1015.07 907.196 1015.98 908.101 1017.14C909.007 1018.31 909.736 1019.71 910.249 1021.27C910.761 1022.82 911.046 1024.5 911.088 1026.2C911.129 1027.91 910.926 1029.61 910.49 1031.21C910.054 1032.81 909.393 1034.27 908.546 1035.52C907.699 1036.77 906.682 1037.77 905.553 1038.48C904.424 1039.18 903.205 1039.57 901.965 1039.63C901.116 1039.63 820.872 1043.96 779.664 1075.14C797.217 1137.68 801.211 1215.59 798.286 1243.79C797.947 1246.86 796.818 1249.67 795.103 1251.7C793.389 1253.72 791.203 1254.84 788.944 1254.83Z" fill="#263238"/>
<path d="M804.797 1238.03C798.505 1217.63 770.195 1219.92 753.618 1237.42C744.747 1246.73 732.731 1274.84 731.598 1285.06C731.221 1287.49 731.277 1290.01 731.763 1292.4C732.249 1294.79 733.149 1296.99 734.387 1298.79C735.625 1300.6 737.163 1301.96 738.869 1302.77C740.575 1303.58 742.398 1303.8 744.181 1303.42C755.033 1302.12 769.912 1280.43 769.912 1280.43C760.003 1293.81 772.806 1303.25 791.931 1283.89C802.375 1273.11 811.811 1260.85 804.797 1238.03Z" fill="#407BFF"/>
<path d="M1345.84 971.852C1345.7 971.896 1345.55 971.896 1345.4 971.852C1345.2 971.777 1345.01 971.648 1344.85 971.471C1344.69 971.294 1344.55 971.074 1344.45 970.823C1344.35 970.572 1344.29 970.296 1344.27 970.011C1344.25 969.727 1344.27 969.439 1344.33 969.167C1348.52 949.071 1353.08 936.815 1359.08 930.189C1358.14 925.531 1358.32 920.578 1359.59 916.07C1361.05 910.807 1363.64 906.278 1367.01 903.077C1366.1 901.714 1365.44 900.055 1365.12 898.252C1364.8 896.45 1364.81 894.564 1365.16 892.77C1366.29 887.344 1368.65 882.554 1371.89 879.084C1370.72 877.287 1370.08 874.955 1370.09 872.544C1370.09 859.552 1387.43 839.976 1407.09 836.252C1407.5 836.171 1407.93 836.322 1408.26 836.671C1408.6 837.021 1408.82 837.54 1408.88 838.114C1408.94 838.688 1408.83 839.271 1408.57 839.734C1408.32 840.197 1407.94 840.502 1407.53 840.582C1388.84 844.09 1373.18 862.713 1373.24 872.544C1373.23 874.01 1373.64 875.423 1374.37 876.486C1378.6 872.535 1383.36 869.784 1388.38 868.393C1393.39 867.003 1398.55 867.001 1403.56 868.387C1413.22 870.942 1417.15 873.757 1416.71 877.785C1415.83 885.364 1395.29 886.966 1381.51 884.714C1379.04 884.406 1376.64 883.45 1374.44 881.899C1371.47 884.806 1369.26 888.952 1368.14 893.722C1367.87 894.985 1367.88 896.328 1368.15 897.588C1368.42 898.849 1368.96 899.974 1369.69 900.825C1375.54 896.494 1383.75 894.935 1394.6 898.227C1408.85 902.557 1409.38 904.939 1409.73 906.369C1409.84 906.874 1409.85 907.411 1409.75 907.922C1409.66 908.433 1409.47 908.899 1409.19 909.27C1406.21 913.601 1384.34 911.566 1373.37 907.841C1372.04 907.425 1370.76 906.77 1369.56 905.892C1366.31 908.611 1363.81 912.74 1362.45 917.629C1361.54 920.792 1361.29 924.242 1361.73 927.59C1362.29 927.129 1362.86 926.71 1363.46 926.334C1369.97 922.003 1377.83 922.783 1387.55 928.499C1393.84 932.267 1396.99 935.645 1397.3 939.067C1397.32 939.945 1397.16 940.811 1396.84 941.574C1396.53 942.336 1396.07 942.967 1395.51 943.398C1390.7 947.729 1373.9 947.122 1365.16 940.713C1363.14 939.208 1361.47 936.977 1360.31 934.26C1355.18 940.756 1351.03 952.319 1347.26 970.466C1347.14 970.859 1346.95 971.199 1346.7 971.445C1346.45 971.691 1346.15 971.832 1345.84 971.852ZM1362.89 931.444C1363.77 933.685 1365.1 935.522 1366.73 936.728C1373.84 941.925 1387.8 943.095 1393.03 940.193C1394.1 939.587 1394.25 939.11 1394.25 939.11C1394.25 939.11 1394.1 936.685 1386.39 932.137C1377.58 926.94 1370.66 926.204 1364.9 929.885C1364.21 930.346 1363.54 930.867 1362.89 931.444ZM1373.4 902.991L1374.18 903.294C1384.43 906.544 1394.97 907.639 1405.45 906.542C1401.73 904.643 1397.9 903.194 1394 902.211C1387.23 899.684 1380.06 899.955 1373.4 902.991ZM1377.36 878.651C1378.81 879.368 1380.32 879.833 1381.86 880.037C1397.59 882.592 1411.4 879.604 1413.31 876.875C1412.78 876.226 1410.67 874.363 1402.87 872.328C1394.09 869.917 1384.98 872.177 1377.36 878.651Z" fill="#263238"/>
<path d="M936.346 1413.99C938.422 1413.08 937.73 1410.31 935.403 1410.31H892.811C811.717 1398.49 755.065 1414.34 790.768 1418.06C826.47 1421.79 788.251 1421.01 762.174 1434.61C736.097 1448.21 956.101 1451.63 976.075 1434.61C994.446 1418.93 907.595 1426.68 936.346 1413.99Z" fill="#263238"/>
<path d="M1241.28 1431.27L870.729 1414.34L855.347 919.665L1292.93 933.134L1241.28 1431.27Z" fill="#407BFF"/>
<path d="M986.424 1421.79C986.028 1421.79 985.646 1421.59 985.354 1421.22C985.063 1420.85 984.883 1420.34 984.852 1419.8L955.157 922.956C955.131 922.384 955.267 921.82 955.537 921.384C955.807 920.947 956.19 920.673 956.604 920.618C957.018 920.592 957.423 920.783 957.738 921.153C958.054 921.523 958.255 922.043 958.303 922.61L988.154 1419.45C988.172 1419.73 988.148 1420.02 988.084 1420.29C988.021 1420.56 987.919 1420.82 987.784 1421.03C987.65 1421.25 987.486 1421.43 987.301 1421.56C987.116 1421.69 986.914 1421.77 986.707 1421.79H986.424Z" fill="#263238"/>
<path d="M1241.28 1431.27L1340.87 1410.4L1372.23 950.414L1292.93 933.134L1241.28 1431.27Z" fill="#407BFF"/>
<path opacity="0.2" d="M1241.28 1431.27L1340.87 1410.4L1372.23 950.414L1292.93 933.134L1241.28 1431.27Z" fill="black"/>
<path d="M902.373 1319.02L893.251 1025.08C893.026 1017.82 893.885 1010.57 895.776 1003.78C897.666 996.997 900.547 990.817 904.242 985.625C907.936 980.433 912.364 976.34 917.253 973.598C922.142 970.857 927.388 969.525 932.665 969.686L1209.67 978.348C1215.12 978.517 1220.49 980.277 1225.41 983.511C1230.34 986.745 1234.71 991.379 1238.24 997.108C1241.76 1002.84 1244.37 1009.53 1245.88 1016.75C1247.39 1023.97 1247.78 1031.54 1247.01 1038.98L1216.3 1334.95C1214.98 1347.92 1210.22 1359.75 1202.95 1368.18C1195.67 1376.61 1186.39 1381.05 1176.89 1380.64L939.743 1369.82C930.008 1369.4 920.746 1363.94 913.815 1354.52C906.884 1345.09 902.797 1332.41 902.373 1319.02Z" fill="#263238"/>
<path d="M932.32 1059.9L975.163 1061.76L974.817 1076.96L947.985 1075.79L947.733 1087.14L972.615 1088.22L972.269 1102.77L947.387 1101.65L947.073 1115.72L974.66 1116.94L974.282 1133.05L930.653 1131.14L932.32 1059.9Z" fill="white"/>
<path d="M983.121 1133.44L984.757 1062.2L1011.43 1063.36C1015.26 1063.34 1019.06 1064.1 1022.72 1065.62C1025.32 1066.81 1027.54 1069.2 1029.02 1072.37C1030.11 1074.69 1030.84 1077.28 1031.18 1080C1031.51 1082.73 1031.43 1085.51 1030.95 1088.19C1030.46 1090.87 1029.58 1093.38 1028.36 1095.57C1027.14 1097.76 1025.61 1099.58 1023.86 1100.91C1022.07 1102.18 1020.15 1103.06 1018.16 1103.51C1019.63 1104.16 1021.01 1105.09 1022.28 1106.28C1023.2 1107.46 1024.02 1108.76 1024.74 1110.18C1025.55 1111.53 1026.26 1112.98 1026.88 1114.51L1034.14 1135.52L1016.09 1134.69L1008.03 1112.56C1007.4 1110.45 1006.45 1108.54 1005.27 1106.93C1004.14 1105.81 1002.79 1105.18 1001.4 1105.11H999.982L999.321 1134L983.121 1133.44ZM1000.17 1091.78L1006.9 1092.08C1008.33 1091.96 1009.75 1091.68 1011.15 1091.26C1012.2 1091.03 1013.16 1090.28 1013.82 1089.13C1014.5 1087.98 1014.89 1086.55 1014.92 1085.06C1014.98 1084.07 1014.88 1083.08 1014.63 1082.15C1014.37 1081.22 1013.97 1080.38 1013.44 1079.69C1011.69 1078.13 1009.62 1077.39 1007.53 1077.57L1000.48 1077.27L1000.17 1091.78Z" fill="white"/>
<path d="M1039.36 1135.73L1041 1064.49L1067.64 1065.66C1071.47 1065.63 1075.28 1066.39 1078.94 1067.91C1081.54 1069.09 1083.76 1071.48 1085.23 1074.67C1086.82 1078.14 1087.57 1082.22 1087.37 1086.32C1087.38 1089.77 1086.71 1093.17 1085.43 1096.14C1084.15 1099.12 1082.31 1101.56 1080.1 1103.21C1078.31 1104.47 1076.39 1105.34 1074.41 1105.8C1075.86 1106.45 1077.24 1107.38 1078.5 1108.58C1079.44 1109.72 1080.27 1111.01 1080.98 1112.43C1081.79 1113.79 1082.5 1115.23 1083.12 1116.76L1090.39 1137.72L1072.33 1136.94L1064.28 1114.81C1063.63 1112.7 1062.69 1110.79 1061.51 1109.18C1060.39 1108.01 1059.02 1107.38 1057.61 1107.36H1056.23L1055.53 1136.29L1039.36 1135.73ZM1056.38 1094.07L1063.15 1094.33C1064.58 1094.25 1066 1093.99 1067.39 1093.55C1068.44 1093.33 1069.38 1092.57 1070.03 1091.43C1070.74 1090.29 1071.13 1088.85 1071.14 1087.36C1071.2 1086.37 1071.11 1085.37 1070.86 1084.44C1070.61 1083.51 1070.21 1082.67 1069.69 1081.99C1067.93 1080.38 1065.84 1079.64 1063.74 1079.86L1056.73 1079.56L1056.38 1094.07Z" fill="white"/>
<path d="M1092.97 1102.64C1092.72 1097.67 1093.28 1092.69 1094.61 1088.05C1095.93 1083.41 1097.98 1079.24 1100.62 1075.82C1103.25 1072.4 1106.4 1069.83 1109.84 1068.29C1113.29 1066.75 1116.93 1066.28 1120.52 1066.91C1124.14 1066.75 1127.75 1067.59 1131.14 1069.38C1134.52 1071.17 1137.61 1073.88 1140.21 1077.35C1142.54 1081.04 1144.3 1085.34 1145.38 1090C1146.46 1094.65 1146.84 1099.56 1146.5 1104.42C1146.53 1111.5 1145.32 1118.48 1142.98 1124.78C1140.86 1129.93 1137.69 1134.12 1133.86 1136.82C1129.35 1139.79 1124.35 1141.1 1119.36 1140.63C1114.38 1140.68 1109.46 1139.2 1104.95 1136.3C1101.11 1133.43 1097.98 1129.06 1095.95 1123.74C1093.58 1117.21 1092.54 1109.92 1092.97 1102.64ZM1108.95 1103.42C1108.47 1108.88 1109.37 1114.4 1111.49 1119.06C1112.49 1120.58 1113.69 1121.82 1115.04 1122.69C1116.38 1123.56 1117.84 1124.04 1119.33 1124.12C1120.81 1124.2 1122.29 1123.86 1123.68 1123.13C1125.07 1122.4 1126.34 1121.3 1127.41 1119.88C1129.74 1115.02 1130.85 1109.24 1130.56 1103.42C1130.98 1098.2 1130.05 1092.95 1127.95 1088.57C1126.99 1087.06 1125.81 1085.84 1124.49 1085.01C1123.16 1084.18 1121.73 1083.76 1120.27 1083.76C1118.8 1083.62 1117.33 1083.93 1115.96 1084.68C1114.59 1085.43 1113.37 1086.6 1112.37 1088.09C1109.99 1092.51 1108.78 1097.92 1108.95 1103.42Z" fill="white"/>
<path d="M1154.59 1140.97L1156.22 1069.69L1182.87 1070.86C1186.69 1070.85 1190.5 1071.61 1194.16 1073.11C1196.75 1074.32 1198.97 1076.7 1200.45 1079.86C1202.04 1083.34 1202.79 1087.42 1202.59 1091.51C1202.61 1094.98 1201.94 1098.38 1200.66 1101.36C1199.38 1104.35 1197.54 1106.79 1195.32 1108.45C1193.53 1109.67 1191.61 1110.53 1189.63 1111C1191.09 1111.66 1192.46 1112.61 1193.72 1113.82C1194.66 1114.96 1195.5 1116.25 1196.21 1117.67C1197.02 1119.02 1197.73 1120.47 1198.34 1122L1205.61 1143.01L1187.55 1142.23L1179.5 1120.05C1178.86 1117.96 1177.92 1116.05 1176.73 1114.47C1175.61 1113.31 1174.24 1112.65 1172.83 1112.61H1171.45L1170.76 1141.54L1154.59 1140.97ZM1171.61 1099.27L1178.37 1099.57C1179.8 1099.49 1181.22 1099.23 1182.62 1098.79C1183.66 1098.56 1184.6 1097.8 1185.26 1096.67C1186 1095.46 1186.39 1093.92 1186.36 1092.34C1186.43 1091.36 1186.33 1090.37 1186.08 1089.44C1185.83 1088.52 1185.43 1087.69 1184.91 1087.01C1183.16 1085.41 1181.07 1084.66 1178.97 1084.89L1171.95 1084.58L1171.61 1099.27Z" fill="white"/>
<path d="M1180.04 1262.02C1179.45 1262.04 1178.86 1261.88 1178.32 1261.56C1177.78 1261.24 1177.29 1260.76 1176.89 1260.16L1149.96 1219.58L1120.9 1256.13C1120.09 1257.15 1119.03 1257.68 1117.94 1257.62C1116.85 1257.55 1115.82 1256.89 1115.08 1255.79L1088.15 1215.2L1059.09 1251.76C1058.28 1252.77 1057.22 1253.31 1056.13 1253.24C1055.03 1253.18 1054.01 1252.52 1053.27 1251.41L1026.31 1210.83L997.277 1247.38C996.853 1247.91 996.356 1248.31 995.815 1248.57C995.274 1248.82 994.701 1248.92 994.131 1248.86C993.038 1248.77 992.013 1248.1 991.269 1246.99L964.342 1206.46L935.308 1242.97C934.498 1243.98 933.427 1244.52 932.331 1244.45C931.234 1244.39 930.201 1243.73 929.457 1242.62C929.09 1242.07 928.806 1241.43 928.621 1240.72C928.436 1240.02 928.354 1239.28 928.381 1238.53C928.407 1237.79 928.541 1237.06 928.774 1236.38C929.008 1235.71 929.336 1235.1 929.74 1234.61L961.826 1194.2C962.636 1193.18 963.707 1192.65 964.803 1192.71C965.899 1192.78 966.932 1193.44 967.676 1194.55L994.603 1235.13L1023.64 1198.57C1024.46 1197.58 1025.53 1197.05 1026.63 1197.1C1027.72 1197.18 1028.75 1197.85 1029.49 1198.96L1056.41 1239.54L1085.48 1202.99C1085.88 1202.48 1086.34 1202.09 1086.85 1201.83C1087.36 1201.57 1087.9 1201.46 1088.44 1201.49C1088.98 1201.52 1089.51 1201.7 1090.01 1202.02C1090.5 1202.34 1090.94 1202.78 1091.3 1203.34L1118.23 1243.92L1147.29 1207.37C1148.1 1206.35 1149.16 1205.82 1150.25 1205.88C1151.34 1205.95 1152.37 1206.6 1153.11 1207.71L1183.18 1252.67C1183.72 1253.49 1184.07 1254.52 1184.19 1255.62C1184.31 1256.71 1184.2 1257.83 1183.87 1258.84C1183.53 1259.85 1182.99 1260.71 1182.31 1261.3C1181.63 1261.9 1180.84 1262.21 1180.04 1262.2V1262.02Z" fill="white"/>
<path d="M682.244 1441.8L662.552 1428.85L645 1311.18L654.531 1296.76L682.244 1441.8Z" fill="#407BFF"/>
<path d="M682.244 1441.8L708.384 1420.75L685.987 1323.82L654.531 1296.76L682.244 1441.8Z" fill="#407BFF"/>
<path opacity="0.2" d="M682.244 1441.8L708.384 1420.75L685.987 1323.82L654.531 1296.76L682.244 1441.8Z" fill="black"/>
<path d="M1110.83 1463.19H1108.66C1104.49 1463.04 1100.54 1460.61 1097.67 1456.44C1094.8 1452.26 1093.25 1446.69 1093.36 1440.95C1093.47 1435.21 1095.24 1429.76 1098.27 1425.81C1101.3 1421.86 1105.34 1419.73 1109.51 1419.88C1133.73 1420.96 1185.01 1400.48 1214.32 1361.33C1216.09 1358.94 1218.25 1357.16 1220.61 1356.13C1270.28 1335.6 1288.75 1377.05 1289.5 1378.83L1262.45 1400.87C1262.55 1401.15 1262.66 1401.41 1262.8 1401.65C1262.51 1401.09 1255.47 1388.66 1233.07 1396.28C1196.3 1442.45 1139.87 1463.19 1110.83 1463.19Z" fill="#263238"/>
<path d="M1108.92 1491.95L1051.63 1487.01L1047.14 1341.58L1124.11 1345.52L1108.92 1491.95Z" fill="#407BFF"/>
<path d="M1108.91 1491.95L1122.31 1473.59L1130.62 1382.94L1124.11 1345.52L1108.91 1491.95Z" fill="#407BFF"/>
<path opacity="0.2" d="M1108.91 1491.95L1122.31 1473.59L1130.62 1382.94L1124.11 1345.52L1108.91 1491.95Z" fill="black"/>
<path d="M1440.84 1436.9C1438.78 1436.9 1436.78 1435.97 1435.15 1434.26C1402.43 1400.05 1358.24 1339.28 1341.28 1280.69C1341.03 1279.84 1340.85 1278.95 1340.75 1278.05C1332.47 1210.31 1324.58 1067.78 1324.23 1061.76C1324.14 1060.06 1324.29 1058.34 1324.68 1056.72C1325.07 1055.09 1325.68 1053.59 1326.5 1052.29C1328.13 1049.67 1330.46 1048.05 1332.96 1047.79C1335.46 1047.54 1337.94 1048.66 1339.84 1050.91C1341.74 1053.16 1342.92 1056.37 1343.11 1059.81C1343.11 1061.24 1351.19 1205.16 1359.24 1272.33C1376.17 1329.32 1422.15 1387.83 1446.63 1413.56C1448.2 1415.21 1449.36 1417.49 1449.94 1420.09C1450.53 1422.7 1450.5 1425.49 1449.86 1428.07C1449.23 1430.65 1448.03 1432.89 1446.42 1434.47C1444.81 1436.06 1442.88 1436.91 1440.9 1436.9H1440.84Z" fill="#263238"/>
<path d="M1484.47 1443.44C1477.17 1443.44 1468.9 1438.89 1459.87 1429.93C1457.84 1427.91 1456.48 1424.86 1456.09 1421.46C1455.69 1418.05 1456.29 1414.57 1457.76 1411.78C1459.23 1408.99 1461.44 1407.12 1463.92 1406.57C1466.39 1406.03 1468.91 1406.86 1470.94 1408.88C1478.74 1416.63 1482.99 1417.54 1484.47 1417.54C1486.97 1417.54 1489.37 1418.91 1491.14 1421.35C1492.91 1423.79 1493.91 1427.09 1493.91 1430.54C1493.91 1433.98 1492.91 1437.29 1491.14 1439.72C1489.37 1442.16 1486.97 1443.53 1484.47 1443.53V1443.44Z" fill="#263238"/>
<path d="M1462.51 1429.54C1472.61 1388.27 1514.01 1396.41 1528.29 1402.56C1540.49 1407.43 1552.19 1414.42 1563.11 1423.35C1570.82 1430.28 1570.94 1441.93 1560.66 1448.55C1548.07 1456.69 1516.11 1449.46 1516.11 1449.46C1532.6 1459.38 1516.11 1475.45 1487.14 1459.68C1477.74 1454.57 1458.96 1444.7 1462.51 1429.54Z" fill="#407BFF"/>
<path d="M1362.04 1079.43C1358.3 1114.51 1337.19 1140.36 1320.02 1136.9C1302.84 1133.44 1302.15 1102.25 1305.89 1067C1309.64 1031.75 1316.43 1006.37 1333.61 1009.83C1350.78 1013.3 1365.79 1044.48 1362.04 1079.43Z" fill="#263238"/>
<path d="M946.884 939.543C948.309 939.543 949.463 937.953 949.463 935.992C949.463 934.03 948.309 932.44 946.884 932.44C945.46 932.44 944.305 934.03 944.305 935.992C944.305 937.953 945.46 939.543 946.884 939.543Z" fill="#263238"/>
<path d="M973.087 961.545C973.087 962.247 972.935 962.934 972.652 963.518C972.368 964.102 971.966 964.557 971.494 964.825C971.023 965.094 970.504 965.165 970.004 965.028C969.504 964.891 969.044 964.552 968.683 964.056C968.322 963.559 968.077 962.926 967.977 962.237C967.878 961.548 967.929 960.834 968.124 960.185C968.319 959.537 968.65 958.982 969.074 958.592C969.498 958.202 969.997 957.993 970.507 957.993C971.191 957.993 971.847 958.367 972.331 959.033C972.815 959.699 973.087 960.603 973.087 961.545Z" fill="#263238"/>
<path d="M975.981 1381.21C975.981 1381.91 975.83 1382.6 975.546 1383.18C975.263 1383.76 974.86 1384.22 974.389 1384.49C973.917 1384.76 973.399 1384.83 972.898 1384.69C972.398 1384.55 971.939 1384.22 971.578 1383.72C971.217 1383.22 970.971 1382.59 970.872 1381.9C970.772 1381.21 970.823 1380.5 971.019 1379.85C971.214 1379.2 971.544 1378.65 971.969 1378.25C972.393 1377.86 972.892 1377.66 973.402 1377.66C974.086 1377.66 974.742 1378.03 975.226 1378.7C975.709 1379.36 975.981 1380.27 975.981 1381.21Z" fill="#263238"/>
<path d="M999.605 1406.8C999.605 1407.5 999.453 1408.19 999.17 1408.78C998.886 1409.36 998.484 1409.81 998.012 1410.08C997.541 1410.35 997.022 1410.42 996.522 1410.29C996.022 1410.15 995.562 1409.81 995.201 1409.31C994.841 1408.82 994.595 1408.18 994.495 1407.5C994.396 1406.81 994.447 1406.09 994.642 1405.44C994.837 1404.79 995.168 1404.24 995.592 1403.85C996.016 1403.46 996.515 1403.25 997.025 1403.25C997.709 1403.25 998.365 1403.63 998.849 1404.29C999.333 1404.96 999.605 1405.86 999.605 1406.8Z" fill="#263238"/>
<path d="M552.449 1470.39C547.791 1470.1 543.242 1468.43 539.137 1465.51C535.033 1462.59 531.477 1458.49 528.734 1453.51C528.6 1453.28 528.502 1453.02 528.447 1452.74C528.392 1452.46 528.38 1452.16 528.414 1451.88C528.447 1451.59 528.524 1451.32 528.64 1451.07C528.756 1450.82 528.909 1450.61 529.089 1450.45C529.27 1450.28 529.473 1450.17 529.689 1450.11C529.904 1450.05 530.125 1450.05 530.34 1450.11C530.555 1450.17 530.759 1450.28 530.939 1450.45C531.119 1450.61 531.271 1450.83 531.387 1451.07C537.437 1462.61 550.799 1468.72 556.623 1465.09C557.206 1464.76 557.726 1464.26 558.143 1463.64C555.201 1461.93 552.622 1459.28 550.636 1455.95C548.65 1452.61 547.317 1448.67 546.755 1444.49C546.011 1439.07 545.428 1431.68 548.793 1430.74C553.452 1429.37 559.534 1444.19 561.735 1455.43C562.133 1457.29 562.275 1459.23 562.155 1461.16C564.021 1461.89 565.984 1462.1 567.914 1461.76C568.784 1461.67 569.63 1461.34 570.399 1460.8C571.167 1460.25 571.842 1459.5 572.379 1458.59C570.249 1456.47 568.483 1453.78 567.195 1450.7C565.908 1447.61 565.127 1444.2 564.905 1440.69C563.676 1428.98 564.614 1426.98 565.585 1425.95C565.899 1425.63 566.274 1425.44 566.669 1425.38C567.063 1425.33 567.46 1425.42 567.817 1425.65C571.279 1427.57 575.452 1444.15 576.261 1453.55C576.358 1454.53 576.358 1455.52 576.261 1456.5C577.656 1457.21 579.135 1457.58 580.629 1457.61C583.372 1457.75 586.086 1456.81 588.426 1454.92C587.973 1454.53 587.552 1454.11 587.132 1453.68C583.897 1449.88 582.408 1443.81 582.991 1435.18C583.444 1428.47 584.576 1424.8 586.614 1423.64C587.272 1423.29 587.992 1423.21 588.687 1423.39C589.382 1423.57 590.022 1424.02 590.529 1424.67C592.713 1427.85 594.345 1431.63 595.312 1435.73C596.278 1439.83 596.556 1444.17 596.126 1448.42C595.845 1450.2 595.283 1451.87 594.476 1453.34C600.429 1454.71 608.776 1452.48 615.991 1450.13C616.203 1450.07 616.424 1450.05 616.64 1450.1C616.855 1450.15 617.062 1450.25 617.249 1450.4C617.435 1450.55 617.597 1450.75 617.725 1450.98C617.854 1451.21 617.946 1451.48 617.997 1451.76C618.048 1452.04 618.057 1452.33 618.022 1452.61C617.988 1452.9 617.912 1453.17 617.798 1453.42C617.683 1453.66 617.534 1453.88 617.357 1454.05C617.18 1454.22 616.98 1454.34 616.767 1454.41C608 1457.27 598.553 1459.62 591.888 1457.06C588.634 1460.32 584.651 1462.07 580.564 1462.01C578.751 1461.98 576.955 1461.53 575.258 1460.69C574.505 1462.22 573.496 1463.51 572.307 1464.45C571.117 1465.39 569.781 1465.96 568.399 1466.11C565.967 1466.53 563.497 1466.25 561.152 1465.3C560.397 1466.98 559.267 1468.31 557.917 1469.1C556.182 1470.03 554.319 1470.47 552.449 1470.39ZM549.667 1435.01C549.219 1437.91 549.308 1440.92 549.926 1443.77C550.382 1447.18 551.455 1450.4 553.055 1453.16C554.654 1455.91 556.733 1458.11 559.114 1459.58C559.069 1458.56 558.938 1457.56 558.726 1456.59C556.202 1444.37 551.349 1435.95 549.667 1435.01ZM567.688 1431.29C567.709 1434.24 567.892 1437.18 568.238 1440.09C568.594 1445.3 570.336 1450.18 573.155 1453.85C572.359 1445.96 570.508 1438.32 567.688 1431.29ZM588.038 1427.57C588.038 1427.57 586.808 1428.39 586.355 1435.52C585.902 1442.66 586.841 1447.57 589.364 1450.43C589.961 1451.07 590.613 1451.62 591.305 1452.06C592.156 1450.85 592.758 1449.38 593.052 1447.78C593.629 1441.06 592.253 1434.29 589.202 1428.86C588.523 1427.74 588.135 1427.57 588.038 1427.57Z" fill="#263238"/>
<path d="M1025.97 1502.69L1034.74 1482.61L1025.97 1462.52H1016.59L1021.9 1482.61L1016.59 1502.69H1025.97Z" fill="#263238"/>
<path d="M1017.2 1493.07C1016.12 1493.16 1015.04 1492.96 1014.02 1492.48C1013 1491.99 1012.06 1491.24 1011.27 1490.26C1010.48 1489.28 1009.85 1488.1 1009.42 1486.79C1008.99 1485.47 1008.77 1484.06 1008.77 1482.63C1008.77 1481.2 1008.99 1479.78 1009.42 1478.47C1009.85 1477.15 1010.48 1475.97 1011.27 1474.99C1012.06 1474.01 1013 1473.26 1014.02 1472.77C1015.04 1472.29 1016.12 1472.09 1017.2 1472.18L1002.32 1468.25L998.342 1484.14L1005.01 1497.56L1017.2 1493.07Z" fill="#263238"/>
<path d="M1018.5 1462.52H1000.93L992.163 1482.61L1000.93 1502.69H1018.5L1027.27 1482.61L1018.5 1462.52ZM1009.73 1493.07C1008.16 1493.08 1006.63 1492.47 1005.32 1491.33C1004.01 1490.18 1002.99 1488.55 1002.38 1486.64C1001.78 1484.73 1001.62 1482.62 1001.92 1480.59C1002.22 1478.56 1002.97 1476.69 1004.08 1475.22C1005.19 1473.75 1006.6 1472.75 1008.14 1472.34C1009.68 1471.93 1011.27 1472.14 1012.72 1472.93C1014.17 1473.72 1015.41 1475.06 1016.29 1476.78C1017.16 1478.51 1017.62 1480.53 1017.62 1482.61C1017.62 1485.37 1016.79 1488.03 1015.31 1489.99C1013.83 1491.95 1011.83 1493.06 1009.73 1493.07Z" fill="#407BFF"/>
<path d="M1637.51 1461.16L1631.01 1446.25L1637.51 1431.33H1644.47L1640.55 1446.25L1644.47 1461.16H1637.51Z" fill="#407BFF"/>
<path d="M1644.02 1454.02C1644.82 1454.1 1645.64 1453.96 1646.4 1453.61C1647.16 1453.25 1647.87 1452.69 1648.46 1451.97C1649.05 1451.24 1649.53 1450.36 1649.85 1449.38C1650.17 1448.39 1650.34 1447.34 1650.34 1446.27C1650.34 1445.2 1650.17 1444.14 1649.85 1443.16C1649.53 1442.18 1649.05 1441.3 1648.46 1440.57C1647.87 1439.84 1647.16 1439.28 1646.4 1438.93C1645.64 1438.57 1644.82 1438.43 1644.02 1438.51L1655.08 1435.61L1658.03 1447.4L1653.11 1457.35L1644.02 1454.02Z" fill="#407BFF"/>
<path d="M1643.08 1431.33H1656.02L1662.49 1446.25L1656.02 1461.16H1643.08L1636.61 1446.25L1643.08 1431.33ZM1649.55 1454.02C1650.71 1454.03 1651.86 1453.58 1652.83 1452.73C1653.8 1451.88 1654.56 1450.67 1655.01 1449.25C1655.46 1447.83 1655.58 1446.27 1655.36 1444.75C1655.14 1443.24 1654.58 1441.85 1653.76 1440.76C1652.93 1439.67 1651.88 1438.93 1650.74 1438.62C1649.6 1438.32 1648.41 1438.47 1647.33 1439.06C1646.26 1439.64 1645.34 1440.64 1644.69 1441.92C1644.04 1443.2 1643.69 1444.71 1643.69 1446.25C1643.69 1447.27 1643.84 1448.28 1644.13 1449.23C1644.43 1450.17 1644.86 1451.03 1645.41 1451.76C1645.96 1452.48 1646.61 1453.05 1647.32 1453.44C1648.04 1453.83 1648.81 1454.03 1649.58 1454.02H1649.55Z" fill="#263238"/>
<path d="M1395.22 1480.98H1409.84C1411.67 1480.97 1413.43 1480 1414.72 1478.29C1416.01 1476.58 1416.73 1474.26 1416.73 1471.84C1416.73 1469.42 1416.01 1467.1 1414.72 1465.39C1413.43 1463.67 1411.67 1462.71 1409.84 1462.7H1395.22C1393.38 1462.7 1391.62 1463.66 1390.32 1465.37C1389.03 1467.09 1388.3 1469.41 1388.3 1471.84C1388.3 1474.26 1389.03 1476.59 1390.32 1478.3C1391.62 1480.02 1393.38 1480.98 1395.22 1480.98Z" fill="#263238"/>
<path d="M1371.7 1463.72C1373.06 1460.46 1375.11 1457.8 1377.6 1456.06C1380.09 1454.32 1382.91 1453.58 1385.71 1453.93C1388.51 1454.28 1391.18 1455.71 1393.38 1458.04C1395.57 1460.37 1397.2 1463.5 1398.07 1467.03C1398.94 1470.57 1399 1474.37 1398.26 1477.96C1397.51 1481.54 1395.98 1484.76 1393.87 1487.22C1391.75 1489.67 1389.14 1491.26 1386.35 1491.77C1383.56 1492.29 1380.72 1491.72 1378.17 1490.13C1374.67 1487.74 1372.03 1483.63 1370.81 1478.68C1369.6 1473.74 1369.92 1468.36 1371.7 1463.72Z" fill="#407BFF"/>
<path d="M1375.64 1490.12L1379.65 1492.62L1393.59 1453.58L1389.58 1451.09L1375.64 1490.12Z" fill="#263238"/>
<path d="M1224.87 1484L1220.25 1475.84H1218.27V1484H1214.07V1463.06H1221.93C1223.55 1463.06 1224.93 1463.35 1226.07 1463.93C1227.21 1464.49 1228.06 1465.26 1228.62 1466.24C1229.2 1467.2 1229.49 1468.28 1229.49 1469.48C1229.49 1470.86 1229.09 1472.11 1228.29 1473.23C1227.49 1474.33 1226.3 1475.09 1224.72 1475.51L1229.73 1484H1224.87ZM1218.27 1472.69H1221.78C1222.92 1472.69 1223.77 1472.42 1224.33 1471.88C1224.89 1471.32 1225.17 1470.55 1225.17 1469.57C1225.17 1468.61 1224.89 1467.87 1224.33 1467.35C1223.77 1466.81 1222.92 1466.54 1221.78 1466.54H1218.27V1472.69ZM1232.21 1475.63C1232.21 1473.95 1232.54 1472.46 1233.2 1471.16C1233.88 1469.86 1234.79 1468.86 1235.93 1468.16C1237.09 1467.46 1238.38 1467.11 1239.8 1467.11C1241.04 1467.11 1242.12 1467.36 1243.04 1467.86C1243.98 1468.36 1244.73 1468.99 1245.29 1469.75V1467.38H1249.52V1484H1245.29V1481.57C1244.75 1482.35 1244 1483 1243.04 1483.52C1242.1 1484.02 1241.01 1484.27 1239.77 1484.27C1238.37 1484.27 1237.09 1483.91 1235.93 1483.19C1234.79 1482.47 1233.88 1481.46 1233.2 1480.16C1232.54 1478.84 1232.21 1477.33 1232.21 1475.63ZM1245.29 1475.69C1245.29 1474.67 1245.09 1473.8 1244.69 1473.08C1244.29 1472.34 1243.75 1471.78 1243.07 1471.4C1242.39 1471 1241.66 1470.8 1240.88 1470.8C1240.1 1470.8 1239.38 1470.99 1238.72 1471.37C1238.06 1471.75 1237.52 1472.31 1237.1 1473.05C1236.7 1473.77 1236.5 1474.63 1236.5 1475.63C1236.5 1476.63 1236.7 1477.51 1237.1 1478.27C1237.52 1479.01 1238.06 1479.58 1238.72 1479.98C1239.4 1480.38 1240.12 1480.58 1240.88 1480.58C1241.66 1480.58 1242.39 1480.39 1243.07 1480.01C1243.75 1479.61 1244.29 1479.05 1244.69 1478.33C1245.09 1477.59 1245.29 1476.71 1245.29 1475.69ZM1252.54 1475.63C1252.54 1473.95 1252.87 1472.46 1253.53 1471.16C1254.21 1469.86 1255.13 1468.86 1256.29 1468.16C1257.45 1467.46 1258.74 1467.11 1260.16 1467.11C1261.24 1467.11 1262.27 1467.35 1263.25 1467.83C1264.23 1468.29 1265.01 1468.91 1265.59 1469.69V1461.8H1269.85V1484H1265.59V1481.54C1265.07 1482.36 1264.34 1483.02 1263.4 1483.52C1262.46 1484.02 1261.37 1484.27 1260.13 1484.27C1258.73 1484.27 1257.45 1483.91 1256.29 1483.19C1255.13 1482.47 1254.21 1481.46 1253.53 1480.16C1252.87 1478.84 1252.54 1477.33 1252.54 1475.63ZM1265.62 1475.69C1265.62 1474.67 1265.42 1473.8 1265.02 1473.08C1264.62 1472.34 1264.08 1471.78 1263.4 1471.4C1262.72 1471 1261.99 1470.8 1261.21 1470.8C1260.43 1470.8 1259.71 1470.99 1259.05 1471.37C1258.39 1471.75 1257.85 1472.31 1257.43 1473.05C1257.03 1473.77 1256.83 1474.63 1256.83 1475.63C1256.83 1476.63 1257.03 1477.51 1257.43 1478.27C1257.85 1479.01 1258.39 1479.58 1259.05 1479.98C1259.73 1480.38 1260.45 1480.58 1261.21 1480.58C1261.99 1480.58 1262.72 1480.39 1263.4 1480.01C1264.08 1479.61 1264.62 1479.05 1265.02 1478.33C1265.42 1477.59 1265.62 1476.71 1265.62 1475.69ZM1272.87 1475.69C1272.87 1473.97 1273.22 1472.47 1273.92 1471.19C1274.62 1469.89 1275.59 1468.89 1276.83 1468.19C1278.07 1467.47 1279.49 1467.11 1281.09 1467.11C1283.15 1467.11 1284.85 1467.63 1286.19 1468.67C1287.55 1469.69 1288.46 1471.13 1288.92 1472.99H1284.39C1284.15 1472.27 1283.74 1471.71 1283.16 1471.31C1282.6 1470.89 1281.9 1470.68 1281.06 1470.68C1279.86 1470.68 1278.91 1471.12 1278.21 1472C1277.51 1472.86 1277.16 1474.09 1277.16 1475.69C1277.16 1477.27 1277.51 1478.5 1278.21 1479.38C1278.91 1480.24 1279.86 1480.67 1281.06 1480.67C1282.76 1480.67 1283.87 1479.91 1284.39 1478.39H1288.92C1288.46 1480.19 1287.55 1481.62 1286.19 1482.68C1284.83 1483.74 1283.13 1484.27 1281.09 1484.27C1279.49 1484.27 1278.07 1483.92 1276.83 1483.22C1275.59 1482.5 1274.62 1481.5 1273.92 1480.22C1273.22 1478.92 1272.87 1477.41 1272.87 1475.69ZM1290.92 1475.63C1290.92 1473.95 1291.25 1472.46 1291.91 1471.16C1292.59 1469.86 1293.5 1468.86 1294.64 1468.16C1295.8 1467.46 1297.09 1467.11 1298.51 1467.11C1299.75 1467.11 1300.83 1467.36 1301.75 1467.86C1302.69 1468.36 1303.44 1468.99 1304 1469.75V1467.38H1308.23V1484H1304V1481.57C1303.46 1482.35 1302.71 1483 1301.75 1483.52C1300.81 1484.02 1299.72 1484.27 1298.48 1484.27C1297.08 1484.27 1295.8 1483.91 1294.64 1483.19C1293.5 1482.47 1292.59 1481.46 1291.91 1480.16C1291.25 1478.84 1290.92 1477.33 1290.92 1475.63ZM1304 1475.69C1304 1474.67 1303.8 1473.8 1303.4 1473.08C1303 1472.34 1302.46 1471.78 1301.78 1471.4C1301.1 1471 1300.37 1470.8 1299.59 1470.8C1298.81 1470.8 1298.09 1470.99 1297.43 1471.37C1296.77 1471.75 1296.23 1472.31 1295.81 1473.05C1295.41 1473.77 1295.21 1474.63 1295.21 1475.63C1295.21 1476.63 1295.41 1477.51 1295.81 1478.27C1296.23 1479.01 1296.77 1479.58 1297.43 1479.98C1298.11 1480.38 1298.83 1480.58 1299.59 1480.58C1300.37 1480.58 1301.1 1480.39 1301.78 1480.01C1302.46 1479.61 1303 1479.05 1303.4 1478.33C1303.8 1477.59 1304 1476.71 1304 1475.69ZM1316.53 1469.96C1317.07 1469.08 1317.77 1468.39 1318.63 1467.89C1319.51 1467.39 1320.51 1467.14 1321.63 1467.14V1471.55H1320.52C1319.2 1471.55 1318.2 1471.86 1317.52 1472.48C1316.86 1473.1 1316.53 1474.18 1316.53 1475.72V1484H1312.33V1467.38H1316.53V1469.96ZM1330.82 1484.27C1329.46 1484.27 1328.24 1484.03 1327.16 1483.55C1326.08 1483.05 1325.22 1482.38 1324.58 1481.54C1323.96 1480.7 1323.62 1479.77 1323.56 1478.75H1327.79C1327.87 1479.39 1328.18 1479.92 1328.72 1480.34C1329.28 1480.76 1329.97 1480.97 1330.79 1480.97C1331.59 1480.97 1332.21 1480.81 1332.65 1480.49C1333.11 1480.17 1333.34 1479.76 1333.34 1479.26C1333.34 1478.72 1333.06 1478.32 1332.5 1478.06C1331.96 1477.78 1331.09 1477.48 1329.89 1477.16C1328.65 1476.86 1327.63 1476.55 1326.83 1476.23C1326.05 1475.91 1325.37 1475.42 1324.79 1474.76C1324.23 1474.1 1323.95 1473.21 1323.95 1472.09C1323.95 1471.17 1324.21 1470.33 1324.73 1469.57C1325.27 1468.81 1326.03 1468.21 1327.01 1467.77C1328.01 1467.33 1329.18 1467.11 1330.52 1467.11C1332.5 1467.11 1334.08 1467.61 1335.26 1468.61C1336.44 1469.59 1337.09 1470.92 1337.21 1472.6H1333.19C1333.13 1471.94 1332.85 1471.42 1332.35 1471.04C1331.87 1470.64 1331.22 1470.44 1330.4 1470.44C1329.64 1470.44 1329.05 1470.58 1328.63 1470.86C1328.23 1471.14 1328.03 1471.53 1328.03 1472.03C1328.03 1472.59 1328.31 1473.02 1328.87 1473.32C1329.43 1473.6 1330.3 1473.89 1331.48 1474.19C1332.68 1474.49 1333.67 1474.8 1334.45 1475.12C1335.23 1475.44 1335.9 1475.94 1336.46 1476.62C1337.04 1477.28 1337.34 1478.16 1337.36 1479.26C1337.36 1480.22 1337.09 1481.08 1336.55 1481.84C1336.03 1482.6 1335.27 1483.2 1334.27 1483.64C1333.29 1484.06 1332.14 1484.27 1330.82 1484.27Z" fill="black"/>
</svg>
